<svg width="163" height="117" viewBox="0 0 163 117" fill="none" xmlns="http://www.w3.org/2000/svg">
<g clip-path="url(#clip0)">
<path d="M0.997559 92.3165V71.3068H5.39293C6.36013 71.3068 7.17688 71.4573 7.85391 71.7474C8.53095 72.0376 9.08978 72.4352 9.51964 72.9296C9.94951 73.4239 10.2612 73.9827 10.4439 74.6275C10.6265 75.2723 10.7233 75.9279 10.7233 76.6157V77.3787C10.7233 77.9482 10.6803 78.4318 10.5943 78.8295C10.5083 79.2271 10.3686 79.571 10.1967 79.8611C9.86354 80.4092 9.35844 80.8821 8.67066 81.2797C9.37994 81.6128 9.89578 82.1072 10.2397 82.752C10.5728 83.3968 10.7448 84.2888 10.7448 85.4064V86.5885C10.7448 88.437 10.2934 89.8555 9.40143 90.8335C8.50946 91.8114 7.08016 92.3058 5.11352 92.3058H0.997559V92.3165ZM4.00662 74.1439V79.9256H5.36069C6.36013 79.9256 7.03717 79.6785 7.38106 79.1734C7.72495 78.6683 7.8969 77.9375 7.8969 76.9703C7.8969 76.0246 7.70346 75.3153 7.31658 74.8425C6.9297 74.3696 6.24192 74.1332 5.23173 74.1332H4.00662V74.1439ZM4.00662 82.58V89.3074H5.30696C5.91952 89.3074 6.39237 89.2215 6.73626 89.0388C7.08016 88.8668 7.33808 88.6197 7.52077 88.2973C7.69271 87.9856 7.80018 87.6095 7.84317 87.1796C7.88615 86.7497 7.8969 86.2769 7.8969 85.761C7.8969 85.2345 7.86466 84.7724 7.81093 84.3747C7.74645 83.9771 7.62823 83.644 7.45629 83.3753C7.26285 83.0959 6.99418 82.9024 6.66104 82.7735C6.32789 82.6445 5.88728 82.58 5.32845 82.58H4.00662Z" fill="white"/>
<path d="M16.5156 92.3165V71.3068H19.5247V89.2967H25.4783V92.3058H16.5156V92.3165Z" fill="white"/>
<path d="M29.0249 92.3165L33.7104 71.3176H36.2144L40.8999 92.3165H37.8909L37.0097 87.8029H32.9152L32.034 92.3165H29.0249ZM36.4508 84.9658L34.9785 77.3572H34.9248L33.4525 84.9658H36.4508Z" fill="white"/>
<path d="M44.3604 92.3165V89.6621L50.0238 74.1439H44.6505V71.3068H53.2908V73.6926L47.5091 89.4794H53.2908V92.3058H44.3604V92.3165Z" fill="white"/>
<path d="M58.1909 92.3165V71.3068H61.2V92.3058H58.1909V92.3165Z" fill="white"/>
<path d="M66.9604 92.3165V71.3068H69.8513L74.3971 83.9664H74.4616V71.3068H77.4707V92.3058H74.6335L70.034 79.6785H69.9803V92.3058H66.9604V92.3165Z" fill="white"/>
<path d="M82.9409 76.261C82.9409 75.4121 83.0914 74.6705 83.3815 74.015C83.6824 73.3702 84.0693 72.8221 84.5637 72.3922C85.0365 71.9839 85.5738 71.6615 86.1757 71.4465C86.7775 71.2316 87.3793 71.1241 87.9918 71.1241C88.6044 71.1241 89.2062 71.2316 89.808 71.4465C90.4098 71.6615 90.9579 71.9731 91.4415 72.3922C91.9144 72.8221 92.3012 73.3702 92.5914 74.015C92.8816 74.6598 93.032 75.4121 93.032 76.261V77.325H90.0229V76.261C90.0229 75.5303 89.8188 74.9929 89.4211 74.649C89.0128 74.3051 88.5399 74.1332 87.9918 74.1332C87.4438 74.1332 86.9602 74.3051 86.5625 74.649C86.1649 74.9929 85.9607 75.5303 85.9607 76.261V87.3516C85.9607 88.0823 86.1649 88.6197 86.5625 88.9636C86.9602 89.3075 87.4438 89.4794 87.9918 89.4794C88.5399 89.4794 89.0235 89.3075 89.4211 88.9636C89.8295 88.6197 90.0229 88.0823 90.0229 87.3516V83.3968H87.6372V80.7424H93.032V87.3516C93.032 88.2328 92.8816 88.9958 92.5914 89.6191C92.3012 90.2532 91.9144 90.769 91.4415 91.1881C90.9472 91.618 90.4098 91.9511 89.808 92.1661C89.2062 92.381 88.6044 92.4885 87.9918 92.4885C87.3793 92.4885 86.7775 92.381 86.1757 92.1661C85.5738 91.9511 85.0365 91.6287 84.5637 91.1881C84.0693 90.7797 83.6824 90.2532 83.3815 89.6191C83.0914 88.9958 82.9409 88.2328 82.9409 87.3516V76.261Z" fill="white"/>
<path d="M107.078 92.3165V71.3068H111.473C112.44 71.3068 113.257 71.4573 113.934 71.7474C114.611 72.0376 115.17 72.4352 115.6 72.9296C116.03 73.4239 116.341 73.9827 116.535 74.6275C116.728 75.2723 116.814 75.9279 116.814 76.6157V77.3787C116.814 77.9482 116.771 78.4318 116.685 78.8295C116.599 79.2271 116.459 79.571 116.288 79.8611C115.954 80.4092 115.439 80.8821 114.751 81.2797C115.46 81.6128 115.976 82.1072 116.32 82.752C116.653 83.3968 116.825 84.2888 116.825 85.4064V86.5885C116.825 88.437 116.373 89.8555 115.482 90.8335C114.59 91.8222 113.16 92.3058 111.194 92.3058H107.078V92.3165ZM110.087 74.1439V79.9256H111.441C112.44 79.9256 113.117 79.6785 113.461 79.1734C113.805 78.6683 113.977 77.9375 113.977 76.9703C113.977 76.0246 113.784 75.3153 113.397 74.8425C113.01 74.3696 112.322 74.1332 111.323 74.1332H110.087V74.1439ZM110.087 82.58V89.3074H111.387C112 89.3074 112.472 89.2215 112.816 89.0388C113.16 88.8668 113.418 88.6197 113.601 88.2973C113.784 87.9856 113.88 87.6095 113.923 87.1796C113.966 86.7497 113.977 86.2769 113.977 85.761C113.977 85.2345 113.945 84.7724 113.891 84.3747C113.837 83.9771 113.708 83.644 113.536 83.3753C113.343 83.0959 113.074 82.9024 112.741 82.7735C112.408 82.6445 111.967 82.58 111.409 82.58H110.087Z" fill="white"/>
<path d="M122.596 92.3165V71.3068H131.558V74.1439H125.605V80.3125H130.795V83.1389H125.605V89.3074H131.558V92.3165H122.596Z" fill="white"/>
<path d="M135.105 92.3165L139.791 71.3176H142.294L146.98 92.3165H143.971L143.09 87.8029H138.985L138.103 92.3165H135.105ZM142.531 84.9658L141.059 77.3572H141.005L139.533 84.9658H142.531Z" fill="white"/>
<path d="M151.408 92.3165V71.3068H156.244C159.779 71.3068 161.553 73.3594 161.553 77.4754C161.553 78.7113 161.359 79.7644 160.972 80.6349C160.585 81.5054 159.919 82.2039 158.952 82.7305L162.197 92.3165H159.016L156.211 83.3538H154.417V92.3165H151.408ZM154.417 74.1439V80.6886H156.125C156.652 80.6886 157.082 80.6134 157.394 80.463C157.705 80.3125 157.952 80.1083 158.135 79.8289C158.296 79.5495 158.404 79.2163 158.458 78.808C158.522 78.4103 158.543 77.9375 158.543 77.4109C158.543 76.8843 158.511 76.4115 158.458 76.0138C158.404 75.6055 158.286 75.2616 158.103 74.9714C157.727 74.4233 157.017 74.1439 155.975 74.1439H154.417Z" fill="white"/>
<path d="M51.292 116.615V107.437H53.2371C53.9894 107.437 54.5697 107.641 54.9566 108.06C55.3435 108.469 55.5477 109.06 55.5477 109.812V114.111C55.5477 114.97 55.3435 115.605 54.9244 116.013C54.5052 116.421 53.9034 116.625 53.1297 116.625H51.292V116.615ZM52.6138 108.673V115.379H53.2156C53.581 115.379 53.8497 115.282 54.0001 115.099C54.1506 114.917 54.2366 114.627 54.2366 114.229V109.801C54.2366 109.436 54.1613 109.157 54.0216 108.963C53.8712 108.77 53.6133 108.662 53.2264 108.662H52.6138V108.673Z" fill="black" stroke="black" stroke-width="0.304667" stroke-miterlimit="10"/>
<path d="M61.9849 116.615V107.437H63.296V116.615H61.9849Z" fill="black" stroke="black" stroke-width="0.304667" stroke-miterlimit="10"/>
<path d="M69.6577 109.597C69.6577 109.232 69.7222 108.899 69.8512 108.619C69.9801 108.34 70.1521 108.103 70.367 107.91C70.5712 107.727 70.8076 107.588 71.0655 107.502C71.3234 107.416 71.5921 107.362 71.8608 107.362C72.1294 107.362 72.3874 107.405 72.656 107.502C72.9247 107.598 73.1611 107.738 73.3761 107.91C73.5802 108.103 73.7522 108.34 73.8811 108.619C74.0101 108.899 74.0746 109.232 74.0746 109.597V110.059H72.7635V109.597C72.7635 109.275 72.6775 109.049 72.4948 108.899C72.3229 108.748 72.1079 108.673 71.8715 108.673C71.6351 108.673 71.4202 108.748 71.2482 108.899C71.0763 109.049 70.9796 109.285 70.9796 109.597V114.444C70.9796 114.766 71.0655 114.992 71.2482 115.142C71.4202 115.293 71.6351 115.368 71.8715 115.368C72.1079 115.368 72.3229 115.293 72.4948 115.142C72.6668 114.992 72.7635 114.756 72.7635 114.444V112.714H71.7103V111.553H74.0746V114.444C74.0746 114.831 74.0101 115.164 73.8811 115.433C73.7522 115.712 73.5802 115.938 73.3761 116.12C73.1611 116.314 72.9247 116.453 72.656 116.55C72.3874 116.647 72.1294 116.69 71.8608 116.69C71.5921 116.69 71.3342 116.647 71.0655 116.55C70.7969 116.453 70.5712 116.314 70.367 116.12C70.1521 115.938 69.9801 115.712 69.8512 115.433C69.7222 115.153 69.6577 114.831 69.6577 114.444V109.597Z" fill="black" stroke="black" stroke-width="0.304667" stroke-miterlimit="10"/>
<path d="M80.4263 116.615V107.437H81.7374V116.615H80.4263Z" fill="black" stroke="black" stroke-width="0.304667" stroke-miterlimit="10"/>
<path d="M89.0451 116.615V108.673H87.519V107.437H91.8822V108.673H90.3562V116.615H89.0451Z" fill="black" stroke="black" stroke-width="0.304667" stroke-miterlimit="10"/>
<path d="M96.3203 116.615L98.3729 107.437H99.4691L101.522 116.615H100.211L99.8237 114.637H98.029L97.6422 116.615H96.3203ZM99.5658 113.401L98.921 110.07H98.8995L98.2547 113.401H99.5658Z" fill="black" stroke="black" stroke-width="0.304667" stroke-miterlimit="10"/>
<path d="M107.314 116.615V107.437H108.626V115.304H111.226V116.615H107.314Z" fill="black" stroke="black" stroke-width="0.304667" stroke-miterlimit="10"/>
<path d="M81.1033 56.7452C78.7391 53.8436 77.4387 53.5104 75.687 53.0591C74.6983 52.8012 73.5807 52.5217 71.9687 51.6728C69.8731 50.4906 68.7017 48.5777 67.842 47.1699C67.1434 46.0308 66.6813 45.2678 65.9291 45.2678C65.1983 45.2678 64.6502 45.934 63.855 47.9329C62.5009 45.257 62.7266 41.2163 62.8663 38.6908C62.9738 36.7242 62.9952 36.0256 62.6406 35.6495C62.5116 35.5098 62.329 35.4346 62.1355 35.4346C61.6949 35.4346 61.2865 35.7462 60.2549 37.4549C59.0082 31.8022 60.545 24.4945 62.9523 20.3141L63.3284 19.6908L62.6191 19.5296C60.8352 19.1212 59.739 17.4662 59.1265 16.1551C57.7079 13.1031 57.5897 8.81515 58.8363 6.40791C59.8357 4.92487 60.9426 4.17261 62.1892 4.17261C63.4144 4.17261 64.8329 4.84964 66.5309 6.24671C67.885 7.35361 69.3358 8.78291 69.3465 8.79366L69.6689 9.11606L70.0343 8.84739C71.0552 8.10588 73.5484 7.34287 75.7515 6.66583C76.407 6.46164 76.8584 6.03177 77.0089 5.4837C77.1378 5.02159 77.0411 4.5165 76.7295 3.95767C78.6316 4.31231 79.4698 5.54818 80.0609 6.41865C80.3081 6.78404 80.5015 7.06345 80.7487 7.2354L81.5869 7.79422V7.17092C82.0705 6.99897 82.9303 6.62284 83.7685 5.9458C84.5423 5.3225 84.7894 4.01141 84.3703 2.81853C84.2521 2.4209 83.9297 1.75461 83.2204 1.22803C88.0672 1.41072 91.6135 5.97804 91.9467 8.49276L92.0219 9.07307L92.5915 8.94411C93.2793 8.79366 94.0208 8.13812 94.9557 7.32137C96.3528 6.09625 98.083 4.58098 99.91 4.58098C99.9852 4.58098 100.06 4.58098 100.136 4.59173C101.533 4.68845 102.597 5.39772 103.284 6.69807C104.875 9.69638 104.09 14.7258 102.844 16.8751C101.855 18.6806 99.5338 19.551 99.5123 19.551L98.9105 19.766L99.2222 20.3141C101.973 25.1286 103.048 32.2428 101.909 37.4442C100.877 35.7355 100.48 35.4238 100.039 35.4238C99.8455 35.4238 99.6735 35.4991 99.5338 35.6388C99.1792 36.0149 99.2007 36.7134 99.3081 38.6801C99.4478 41.2055 99.6735 45.257 98.3194 47.9222C97.5242 45.934 96.9869 45.257 96.2561 45.257C95.5038 45.257 95.0417 46.0093 94.3432 47.1592C93.4835 48.5562 92.3121 50.4691 90.2057 51.662C88.6045 52.5002 87.4868 52.7904 86.4981 53.0376C84.7679 53.5104 83.4676 53.8436 81.1033 56.7452Z" fill="#060707"/>
<path d="M84.5743 1.94804C88.3787 2.81851 91.1405 6.51536 91.4092 8.55722L91.5597 9.7286L92.7095 9.47068C93.5263 9.28799 94.3108 8.6002 95.3102 7.72973C96.6321 6.56909 98.2871 5.12904 99.9098 5.12904C99.9743 5.12904 100.039 5.12904 100.092 5.13979C101.318 5.22576 102.199 5.81683 102.811 6.95597C104.294 9.75009 103.542 14.6183 102.371 16.6279C101.5 18.2292 99.351 19.0459 99.3295 19.0459L98.1366 19.4865L98.7707 20.5935C101.232 24.9029 102.328 31.1037 101.64 36.0256C101.017 35.1659 100.587 34.908 100.06 34.908C99.7164 34.908 99.4047 35.0477 99.1683 35.2949C98.631 35.8644 98.6847 36.7027 98.7922 38.7338C98.9104 40.8616 99.0931 44.0856 98.3193 46.5573C97.7175 45.3322 97.1264 44.7411 96.2774 44.7411C95.2243 44.7411 94.6439 45.6869 93.9132 46.9012C93.0857 48.2553 91.9573 50.093 89.9907 51.1999C88.4324 52.0166 87.347 52.296 86.3905 52.5432C84.5314 53.0161 83.2095 53.4674 81.1139 55.9177C79.0076 53.4674 77.6858 53.0268 75.8373 52.5432C74.8809 52.296 73.7955 52.0166 72.2587 51.2214C70.2706 50.1037 69.1422 48.2553 68.3147 46.9012C67.5839 45.6976 67.0036 44.7519 65.9504 44.7519C65.1014 44.7519 64.4996 45.343 63.8978 46.5681C63.1241 44.0964 63.3067 40.8616 63.425 38.7445C63.5432 36.7134 63.5862 35.8752 63.0488 35.3056C62.8124 35.0584 62.5008 34.9187 62.1569 34.9187C61.6303 34.9187 61.2004 35.1766 60.5664 36.0471C59.8141 30.749 61.2756 24.3763 63.4357 20.6042L64.1557 19.3468L62.7372 19.0244C61.5121 18.745 60.3944 17.6489 59.6099 15.9509C58.2666 13.0493 58.1269 9.01932 59.2875 6.73029C60.5019 4.94635 61.5228 4.73141 62.1891 4.73141C63.2638 4.73141 64.6178 5.38696 66.1976 6.6873C67.5302 7.77271 68.9595 9.18052 68.9702 9.20202L69.615 9.84681L70.3565 9.32023C71.313 8.63244 73.8707 7.84794 75.9233 7.21389C76.7508 6.95597 77.3419 6.39714 77.5461 5.66637C77.6213 5.39771 77.632 5.11829 77.5998 4.82813C78.6422 5.30099 79.1903 6.10698 79.6416 6.76253C79.9211 7.1709 80.1467 7.4933 80.4691 7.71898L82.1456 8.83663V7.53629C82.6829 7.31061 83.4137 6.93448 84.1337 6.3649C85.0687 5.60189 85.3911 4.03288 84.8967 2.63582C84.8108 2.38865 84.7033 2.16297 84.5743 1.94804ZM82.9194 0.679932C82.1779 0.679932 81.4041 0.776651 80.6088 0.991584C84.2842 0.991584 84.6173 4.58096 83.446 5.52667C82.2746 6.47237 81.0602 6.78402 81.0602 6.78402V6.79477C80.3832 6.33266 79.5342 3.33435 75.6009 3.33435C77.2881 5.17203 76.3209 5.94578 75.6009 6.16072C73.1829 6.90224 70.7972 7.6545 69.7225 8.41751C69.7225 8.41751 68.261 6.96672 66.8746 5.83832C65.0907 4.36603 63.5539 3.63526 62.1891 3.63526C60.7276 3.63526 59.4809 4.4735 58.3525 6.16072C56.1925 10.3197 57.8904 19.003 62.49 20.0561C59.6744 24.9673 58.2881 33.1133 60.072 38.852C61.2327 36.8101 61.8345 35.9826 62.1354 35.9826C63.1133 35.9826 60.7813 44.9453 63.9623 49.1473C64.8435 46.7185 65.4023 45.8158 65.9182 45.8158C67.0358 45.8158 67.96 50.05 71.6999 52.1563C76.3747 54.6066 77.1484 52.5647 81.0817 57.6264C85.015 52.5647 85.7887 54.6066 90.4635 52.1563C94.2033 50.05 95.1383 45.8266 96.2559 45.8266C96.7718 45.8266 97.3199 46.7293 98.2011 49.158C101.393 44.9561 99.0501 35.9934 100.028 35.9934C100.329 35.9934 100.931 36.8209 102.091 38.8627C103.875 33.0703 102.5 25.0211 99.6734 20.0669C99.6734 20.0669 102.199 19.1427 103.284 17.1545C105.272 13.7156 105.842 4.46275 100.135 4.07587C100.05 4.06512 99.9635 4.06512 99.8776 4.06512C96.6536 4.06512 93.9454 8.09511 92.4409 8.439C92.1185 5.7416 88.3034 0.679932 82.9194 0.679932Z" fill="#060707"/>
<path d="M83.6287 23.5703C83.7684 23.9787 84.5959 26.2999 87.7232 30.0505C88.8086 31.3509 90.2164 33.5217 88.9376 36.6597C87.9059 38.2287 88.5614 39.5828 87.7232 39.5828C86.8849 39.5828 85.4771 39.3893 84.338 38.7445C83.3278 38.1642 82.4788 37.9493 82.2854 37.9063V35.1337C84.2843 34.7253 85.7565 33.2852 85.7565 31.5658C85.7565 29.5347 83.6932 28.46 81.1462 28.46C78.5993 28.46 76.5359 29.5347 76.5359 31.5658C76.5359 33.2852 78.019 34.7253 80.0071 35.1337V37.9063C79.8244 37.9493 78.9647 38.1642 77.9545 38.7445C76.8153 39.3893 75.4075 39.5828 74.5693 39.5828C73.7311 39.5828 74.3759 38.2287 73.3549 36.6597C72.0868 33.5217 73.4946 31.3509 74.5693 30.0505C77.6966 26.2999 78.9969 23.9249 79.1581 23.5703C79.459 22.8932 80.0501 21.5714 81.3827 21.5714C82.7367 21.5714 83.403 22.904 83.6287 23.5703Z" fill="white"/>
<path d="M81.1676 40.0664C82.0596 40.0664 83.908 41.3775 84.9827 41.3775C84.9827 41.3775 82.9623 42.1727 81.1676 42.1727C79.3729 42.1727 77.3203 41.3238 77.3203 41.3238C78.4165 41.3238 80.3079 40.0664 81.1676 40.0664Z" fill="#00DCDC"/>
<path d="M81.1893 14.9085C81.1893 14.9085 86.3047 14.4679 90.3024 14.0166C94.3001 13.576 95.4071 14.6291 95.7939 14.6936C96.2023 12.555 97.105 10.7174 98.9642 10.7174C99.8454 10.7174 100.34 11.7275 99.8024 16.4883C102.403 13.9951 102.425 8.4928 100.05 7.99845C97.6853 7.51485 95.622 10.309 93.6446 11.3836C92.2583 12.1359 91.5705 12.1789 90.743 12.1681C90.6355 11.1257 90.7323 10.4164 90.0337 8.8152C89.3352 7.21395 86.5841 4.90342 85.7888 4.8067C86.0252 6.98827 85.0043 8.15965 83.9726 8.85818C83.7899 8.98714 83.6072 9.09461 83.446 9.19133C82.2747 9.68568 81.8126 9.86837 80.3833 10.0511C79.8674 9.72866 79.2656 8.53579 78.5456 7.85875C77.213 9.55672 75.7729 9.24506 72.8821 10.352C71.7 10.8033 69.7333 12.1037 69.7333 12.1037C67.455 9.51373 64.4675 7.05275 62.0925 7.53635C59.7282 8.01995 59.4918 13.1676 61.9635 16.0477C61.4262 11.2762 62.4471 10.6959 63.3391 10.6959C65.1983 10.6959 66.101 12.5443 66.5093 14.6936C66.9285 14.6076 69.6366 13.3288 74.3114 13.9951" fill="#00DCDC"/>
<path d="M68.809 30.5664C67.9492 30.5664 67.111 30.3837 66.3157 30.0291C64.7897 29.3413 63.6613 28.2451 62.9413 26.7836C62.4147 28.3418 61.9204 29.7926 62.0171 32.6082C62.0171 32.6082 64.6393 28.7395 64.5855 31.5013C64.5318 34.2632 65.2626 38.938 65.8644 40.6897C67.2507 44.7305 70.5284 46.4714 72.753 46.2457C69.8621 44.6875 68.9809 40.8402 68.9809 37.8634C68.9809 35.4024 70.969 33.6399 69.1743 30.5664C69.0346 30.5664 68.9164 30.5664 68.809 30.5664Z" fill="#00DCDC"/>
<path d="M93.4406 30.5664C94.3003 30.5664 95.1386 30.3837 95.9338 30.0291C97.4598 29.3413 98.5882 28.2451 99.3083 26.7836C99.8349 28.3418 100.329 29.7926 100.232 32.6082C100.232 32.6082 97.6103 28.7395 97.664 31.5013C97.7178 34.2632 96.987 38.938 96.3852 40.6897C94.9989 44.7305 91.7211 46.4714 89.4966 46.2457C92.3874 44.6875 93.2687 40.8402 93.2687 37.8634C93.2687 35.4024 91.2805 33.6399 93.0752 30.5664C93.2149 30.5664 93.3331 30.5664 93.4406 30.5664Z" fill="#00DCDC"/>
<path d="M80.0608 18.9815C79.9856 18.154 79.7599 17.3695 79.4053 16.6817H83.403C83.0484 17.3695 82.8227 18.154 82.7475 18.9815C82.3176 18.788 81.8663 18.6913 81.4041 18.6913C80.942 18.6913 80.4907 18.7988 80.0608 18.9815Z" fill="#00DCDC"/>
<path d="M95.6112 17.7779C94.3431 16.4345 91.5812 16.5742 90.1304 17.0256C92.2045 17.1331 93.7197 18.5838 93.9992 19.7122C94.2356 20.6472 94.0206 22.3774 94.0206 22.3774C94.0959 22.3559 96.7933 19.0245 95.6112 17.7779Z" fill="white"/>
<path d="M77.6536 17.9713C76.3855 16.6279 73.6236 16.7676 72.1729 17.219C74.247 17.3265 75.7622 18.7773 76.0416 19.9057C76.2781 20.8406 76.0631 22.5708 76.0631 22.5708C76.1384 22.5493 78.825 19.2179 77.6536 17.9713Z" fill="white"/>
</g>
<defs>
<clipPath id="clip0">
<rect width="161.21" height="116.171" fill="white" transform="translate(0.997559 0.679932)"/>
</clipPath>
</defs>
</svg>
