<svg width="58" height="58" viewBox="0 0 58 58" fill="none" xmlns="http://www.w3.org/2000/svg">
<g clip-path="url(#clip0)">
<path d="M10.75 51L12 46H45.25L46.5 51L49.75 53.75L48.5 56.5H8.75V53.75L10.75 51Z" fill="#00DCDC"/>
<path d="M48.04 51.3296L47.0901 47.53C46.6013 45.574 45.3434 44.4062 43.7256 44.4062H14.2726C12.6547 44.4062 11.3969 45.574 10.908 47.5299L9.95803 51.3296C8.52786 51.7306 7.47571 53.0451 7.47571 54.6016V56.8672C7.47571 57.4929 7.98287 58 8.60852 58H49.3896C50.0151 58 50.5224 57.4929 50.5224 56.8672V54.6016C50.5223 53.0451 49.4701 51.7306 48.04 51.3296ZM48.2567 55.7344H9.74121V54.6016C9.74121 53.9776 10.2483 53.47 10.872 53.4689C10.8729 53.4689 10.8739 53.469 10.8748 53.469C10.877 53.469 10.8792 53.4688 10.8814 53.4688H23.9009C24.5265 53.4688 25.0337 52.9616 25.0337 52.336C25.0337 51.7103 24.5265 51.2032 23.9009 51.2032H12.3249L13.1059 48.0794C13.2373 47.5538 13.5635 46.6719 14.2724 46.6719H43.7255C44.4344 46.6719 44.7606 47.5537 44.892 48.0795L45.673 51.2032H34.0961C33.4706 51.2032 32.9633 51.7103 32.9633 52.336C32.9633 52.9616 33.4706 53.4688 34.0961 53.4688H47.1239C47.7485 53.4688 48.2567 53.977 48.2567 54.6016V55.7344Z" fill="black"/>
<path d="M27.8662 32.9892V41.0077C27.8662 41.6333 28.3734 42.1405 28.999 42.1405C29.6247 42.1405 30.1318 41.6333 30.1318 41.0077V32.9892C30.1318 32.3635 29.6246 31.8564 28.999 31.8564C28.3735 31.8564 27.8662 32.3635 27.8662 32.9892Z" fill="black"/>
<path d="M20.0881 41.5742C20.2979 41.9376 20.6786 42.1409 21.0701 42.1409C21.2622 42.1409 21.4571 42.0918 21.6355 41.9888C22.1773 41.6761 22.363 40.9832 22.0501 40.4414L13.5137 25.6558C13.2008 25.1139 12.508 24.9283 11.9663 25.2412C11.4244 25.554 11.2388 26.2468 11.5517 26.7886L20.0881 41.5742Z" fill="black"/>
<path d="M36.3623 41.9887C36.5407 42.0918 36.7354 42.1407 36.9275 42.1407C37.319 42.1407 37.6999 41.9375 37.9097 41.5741L46.4461 26.7885C46.759 26.2467 46.5733 25.5539 46.0315 25.2411C45.4894 24.9281 44.7967 25.1139 44.4841 25.6557L35.9476 40.4413C35.6348 40.9831 35.8204 41.676 36.3623 41.9887Z" fill="black"/>
<path d="M15.7903 20.3906C15.7903 22.2644 17.3148 23.789 19.1887 23.789C20.0303 23.789 20.8007 23.4809 21.3949 22.9723L25.6585 25.4339C25.6211 25.6353 25.6007 25.8425 25.6007 26.0545C25.6007 27.9284 27.1253 29.4529 28.9992 29.4529C30.8731 29.4529 32.3976 27.9284 32.3976 26.0545C32.3976 25.8424 32.3771 25.6352 32.3398 25.4338L36.6035 22.9722C37.1976 23.4807 37.9682 23.7889 38.8096 23.7889C40.6835 23.7889 42.2081 22.2643 42.2081 20.3904C42.2081 18.9136 41.2609 17.6545 39.9423 17.1869V12.2659C41.2609 11.7983 42.2081 10.5392 42.2081 9.06236C42.2081 7.18847 40.6835 5.66393 38.8096 5.66393C37.9681 5.66393 37.1976 5.97206 36.6034 6.48057L32.3397 4.01898C32.3771 3.81757 32.3975 3.61038 32.3975 3.39832C32.3975 1.52443 30.8729 -0.000106812 28.9991 -0.000106812C27.1252 -0.000106812 25.6006 1.52443 25.6006 3.39832C25.6006 3.61038 25.6211 3.81757 25.6584 4.01898L21.3947 6.48057C20.8007 5.97217 20.0302 5.66405 19.1887 5.66405C17.3148 5.66405 15.7903 7.18858 15.7903 9.06247C15.7903 10.5392 16.7374 11.7984 18.0559 12.2661V17.1871C16.7374 17.6546 15.7903 18.9137 15.7903 20.3906ZM28.9991 6.79685C29.8406 6.79685 30.611 6.48873 31.2052 5.98021L35.4689 8.44181C35.4315 8.64322 35.4111 8.85041 35.4111 9.06247C35.4111 9.27453 35.4316 9.48172 35.4689 9.68314L31.2052 12.1447C30.611 11.6362 29.8406 11.3281 28.9991 11.3281C28.1575 11.3281 27.3871 11.6362 26.7929 12.1447L22.5292 9.68314C22.5666 9.48172 22.587 9.27453 22.587 9.06247C22.587 8.85041 22.5665 8.64322 22.5292 8.44181L26.7928 5.98021C27.3871 6.48873 28.1575 6.79685 28.9991 6.79685ZM35.4111 20.3906C35.4111 20.6026 35.4316 20.8098 35.4689 21.0112L31.2052 23.4728C30.8914 23.2043 30.5286 22.9918 30.1319 22.8511V17.9301C31.4503 17.4624 32.3974 16.2032 32.3974 14.7265C32.3974 14.5146 32.3769 14.3074 32.3396 14.106L36.6033 11.6443C36.917 11.9127 37.2798 12.1252 37.6765 12.2659V17.187C36.3581 17.6547 35.4111 18.9138 35.4111 20.3906ZM30.1318 14.7265C30.1318 15.3511 29.6237 15.8593 28.9989 15.8593C28.3743 15.8593 27.8661 15.3511 27.8661 14.7265C27.8661 14.1019 28.3743 13.5937 28.9989 13.5937C29.6237 13.5937 30.1318 14.1018 30.1318 14.7265ZM21.3949 11.6443L25.6585 14.1058C25.6211 14.3073 25.6007 14.5145 25.6007 14.7265C25.6007 16.2032 26.5479 17.4625 27.8664 17.9301V22.8511C27.4697 22.9918 27.1068 23.2043 26.793 23.4729L22.5294 21.0113C22.5667 20.8099 22.5871 20.6027 22.5871 20.3907C22.5871 18.9139 21.64 17.6548 20.3215 17.1872V12.2662C20.7182 12.1252 21.0811 11.9127 21.3949 11.6443ZM19.1887 21.5234C18.5641 21.5234 18.0559 21.0152 18.0559 20.3906C18.0559 19.7659 18.5641 19.2577 19.1887 19.2577C19.8133 19.2577 20.3215 19.7659 20.3215 20.3906C20.3215 21.0152 19.8133 21.5234 19.1887 21.5234ZM28.9991 27.1874C28.3744 27.1874 27.8662 26.6792 27.8662 26.0546C27.8662 25.43 28.3744 24.9218 28.9991 24.9218C29.6237 24.9218 30.1319 25.43 30.1319 26.0546C30.1319 26.6792 29.6237 27.1874 28.9991 27.1874ZM38.8095 21.5234C38.1849 21.5234 37.6767 21.0152 37.6767 20.3906C37.6767 19.7659 38.1849 19.2577 38.8095 19.2577C39.4342 19.2577 39.9423 19.7659 39.9423 20.3906C39.9423 21.0152 39.434 21.5234 38.8095 21.5234ZM38.8095 7.92966C39.4342 7.92966 39.9423 8.43784 39.9423 9.06247C39.9423 9.6871 39.4342 10.1953 38.8095 10.1953C38.1849 10.1953 37.6767 9.6871 37.6767 9.06247C37.6767 8.43784 38.1849 7.92966 38.8095 7.92966ZM28.9991 2.26562C29.6237 2.26562 30.1319 2.7738 30.1319 3.39843C30.1319 4.02306 29.6238 4.53124 28.9991 4.53124C28.3744 4.53124 27.8662 4.02306 27.8662 3.39843C27.8662 2.7738 28.3744 2.26562 28.9991 2.26562ZM19.1887 7.92966C19.8133 7.92966 20.3215 8.43784 20.3215 9.06247C20.3215 9.6871 19.8133 10.1953 19.1887 10.1953C18.5641 10.1953 18.0559 9.6871 18.0559 9.06247C18.0559 8.43784 18.5641 7.92966 19.1887 7.92966Z" fill="black"/>
<path d="M28.9989 51.2032H28.9981C28.3724 51.2032 27.8657 51.7103 27.8657 52.336C27.8657 52.9616 28.3732 53.4688 28.9989 53.4688C29.6245 53.4688 30.1317 52.9616 30.1317 52.336C30.1317 51.7103 29.6245 51.2032 28.9989 51.2032Z" fill="black"/>
</g>
<defs>
<clipPath id="clip0">
<rect width="58" height="58" fill="white" transform="translate(-0.00109863)"/>
</clipPath>
</defs>
</svg>
