<svg width="59" height="58" viewBox="0 0 59 58" fill="none" xmlns="http://www.w3.org/2000/svg">
<g clip-path="url(#clip0)">
<path d="M13.25 23.625H19.25H22.375L25.5 25.75L28.125 28.75L30.625 34.875L29 38L32.75 41.875L30.625 47.25L28.125 51.75L24.625 54.625L21.125 56.625L17.25 54.625L14.25 56.625L9.875 54.625L5.375 48.875L1.875 42.5L3.75 38L6 31.25L6.75 26.75L13.25 23.625Z" fill="#00DCDC"/>
<path d="M11.8767 42.9925C12.2035 42.2061 12.2781 41.3149 12.0463 40.4497C11.8666 39.7796 11.5124 39.1662 11.0219 38.6756C10.5794 38.2333 9.86234 38.2333 9.41975 38.6756C8.97739 39.118 8.97739 39.8353 9.41975 40.2778C9.62955 40.4876 9.78101 40.7498 9.85781 41.0363C10.0556 41.7747 9.73139 42.5573 9.06938 42.9397C8.57706 43.2239 8.37168 43.829 8.58918 44.3542C8.80679 44.8794 9.38022 45.162 9.92895 45.0149C10.8301 44.7731 11.7598 45.3101 12.0013 46.2115C12.0396 46.354 12.059 46.5012 12.059 46.6492C12.059 47.2748 12.5663 47.782 13.1918 47.782C13.8173 47.782 14.3246 47.2748 14.3246 46.6492C14.3246 46.3031 14.2793 45.9585 14.1898 45.6249C13.8589 44.3899 12.9755 43.4476 11.8767 42.9925Z" fill="black"/>
<path d="M25.5863 42.9396C24.9243 42.5573 24.6 41.7746 24.7978 41.0362C24.8746 40.7497 25.0261 40.4874 25.2358 40.2777C25.6781 39.8353 25.6781 39.118 25.2358 38.6756C24.7933 38.2332 24.0762 38.2332 23.6336 38.6756C23.143 39.1662 22.7889 39.7797 22.6094 40.4499C22.3776 41.315 22.4521 42.2061 22.7789 42.9925C21.6801 43.4476 20.7966 44.39 20.4656 45.6251C20.3762 45.9592 20.3309 46.3038 20.3309 46.6492C20.3309 47.2749 20.8382 47.782 21.4637 47.782C22.0893 47.782 22.5966 47.2749 22.5966 46.6492C22.5966 46.5015 22.616 46.3541 22.6542 46.2113C22.8957 45.31 23.8254 44.7734 24.7267 45.0148C25.2755 45.1618 25.8489 44.8794 26.0665 44.354C26.284 43.8289 26.0786 43.2238 25.5863 42.9396Z" fill="black"/>
<path d="M58.9988 3.96483C58.9988 0.111242 47.8133 0 46.5379 0C45.2625 0 34.077 0.111242 34.077 3.96483V20.9575C34.077 22.342 35.4431 23.3566 38.253 24.059C40.2078 24.5477 42.7141 24.8435 45.4051 24.9085V30.5166L42.8806 33.0411C42.4383 33.4834 42.4383 34.2007 42.8806 34.6431C43.323 35.0856 44.04 35.0856 44.4827 34.6431L45.4052 33.7206V40.911C45.4052 41.5357 44.897 42.0438 44.2724 42.0438H33.5596C33.2874 40.471 32.4539 39.0688 31.2102 38.0808C31.8441 37.137 32.1925 36.0171 32.1925 34.8602C32.1925 32.9384 31.225 31.1506 29.666 30.0861C29.6924 29.8835 29.7058 29.6787 29.7058 29.4725C29.7058 26.8826 27.5987 24.7755 25.0089 24.7755C24.8323 24.7755 24.6572 24.7852 24.484 24.8043C23.9744 23.0423 22.3464 21.7501 20.4224 21.7501C19.2018 21.7501 18.1003 22.2701 17.328 23.1003C16.5556 22.2701 15.4541 21.7501 14.2335 21.7501C12.3095 21.7501 10.6816 23.0423 10.1719 24.8043C9.99883 24.7852 9.82369 24.7755 9.64709 24.7755C7.05715 24.7755 4.95001 26.8827 4.95001 29.4725C4.95001 29.6787 4.96338 29.8835 4.98989 30.0861C3.4308 31.1506 2.46339 32.9384 2.46339 34.8602C2.46339 36.0171 2.81161 37.137 3.44576 38.0808C1.90978 39.301 0.998779 41.1523 0.998779 43.1768C0.998779 45.5537 2.26583 47.6948 4.28993 48.8435C4.28766 48.9072 4.28675 48.9707 4.28675 49.0343C4.28675 51.6284 5.97849 53.8492 8.40247 54.5676C9.12928 56.5947 11.0739 58 13.2802 58C14.9162 58 16.3779 57.2375 17.3279 56.0493C18.278 57.2374 19.7395 58 21.3755 58C23.5818 58 25.5263 56.5947 26.2533 54.5676C28.6772 53.8492 30.369 51.6283 30.369 49.0343C30.369 48.9707 30.3678 48.9072 30.3658 48.8435C32.0621 47.8807 33.2262 46.2208 33.5589 44.3096H44.2723C46.1462 44.3096 47.6707 42.785 47.6707 40.9111V33.7208L48.5931 34.6432C48.8144 34.8644 49.1043 34.975 49.3941 34.975C49.684 34.975 49.9739 34.8643 50.1952 34.6432C50.6375 34.2008 50.6375 33.4835 50.1952 33.0412L47.6707 30.5167V24.9086C50.3616 24.8436 52.8679 24.5478 54.8228 24.0591C57.6328 23.3567 58.9988 22.3421 58.9988 20.9576V3.96483ZM13.2801 55.7344C12.4081 55.7344 11.6093 55.3442 11.0691 54.7173C11.2326 54.6883 11.3952 54.6549 11.5558 54.612C12.1601 54.4501 12.5188 53.8289 12.3568 53.2246C12.1948 52.6203 11.5737 52.2616 10.9694 52.4236C10.4904 52.552 9.98319 52.5771 9.49405 52.497C9.49223 52.4967 9.49042 52.4967 9.48861 52.4965C7.98764 52.2508 6.85064 51.0893 6.60312 49.6326C6.90524 49.6753 7.21087 49.6973 7.51922 49.6973C8.08869 49.6973 8.65656 49.6225 9.20688 49.4752C9.81112 49.3133 10.1699 48.6921 10.0079 48.0878C9.84612 47.4837 9.22602 47.1249 8.62054 47.2867C8.26144 47.383 7.8909 47.4317 7.51911 47.4317C6.97004 47.4317 6.43354 47.3274 5.92446 47.1215C5.92072 47.1201 5.91687 47.119 5.91313 47.1176C4.30397 46.4611 3.2644 44.9157 3.2644 43.1768C3.2644 41.5405 4.17687 40.0775 5.64624 39.3557C5.64907 39.3543 5.65201 39.3534 5.65496 39.3521C5.89897 39.2331 6.15577 39.1372 6.41813 39.0668C7.02249 38.9048 7.38102 38.2836 7.21903 37.6793C7.05704 37.0751 6.43648 36.7165 5.83156 36.8785C5.70458 36.9126 5.57884 36.9519 5.45377 36.9937C4.98819 36.3856 4.72866 35.6369 4.72866 34.8604C4.72866 33.8628 5.15902 32.9259 5.87472 32.2701C6.25478 32.7824 6.73747 33.2166 7.2981 33.5403C7.47652 33.6434 7.67125 33.6923 7.86337 33.6923C8.25487 33.6923 8.6356 33.4891 8.84551 33.1258C9.15839 32.584 8.97273 31.8911 8.43091 31.5783C7.92715 31.2874 7.5438 30.8247 7.35179 30.2757C7.35089 30.2729 7.34953 30.2704 7.34862 30.2677C7.26038 30.0126 7.21529 29.7453 7.21529 29.4726C7.21529 28.1319 8.30607 27.0413 9.64675 27.0413C9.99962 27.0413 10.3393 27.1151 10.657 27.2606C10.6595 27.2617 10.6617 27.2633 10.6642 27.2644C11.1234 27.476 11.4996 27.8192 11.7523 28.257C11.9622 28.6204 12.3428 28.8235 12.7344 28.8235C12.9266 28.8235 13.1214 28.7746 13.2997 28.6716C13.8415 28.3588 14.0272 27.666 13.7143 27.1242C13.3611 26.5122 12.8814 25.9978 12.3081 25.6043C12.483 24.7007 13.2792 24.0159 14.233 24.0159C15.3148 24.0159 16.1947 24.896 16.1947 25.9776V31.4529C15.9356 31.6076 15.6396 31.6921 15.33 31.6921C14.8781 31.6921 14.4531 31.5162 14.1337 31.1966C13.6913 30.7542 12.974 30.7542 12.5316 31.1965C12.0891 31.6389 12.0891 32.3561 12.5313 32.7985C13.2788 33.5461 14.2727 33.9577 15.3299 33.9577C15.6245 33.9577 15.9138 33.9247 16.1946 33.8624V52.8197C16.1951 54.4268 14.8875 55.7344 13.2801 55.7344ZM28.7414 47.118C28.738 47.1194 28.7345 47.1202 28.7311 47.1215C28.222 47.3272 27.6855 47.4317 27.1363 47.4317C26.7646 47.4317 26.3941 47.3829 26.035 47.2867C25.4305 47.1248 24.8096 47.4835 24.6476 48.0877C24.4856 48.6919 24.8443 49.3132 25.4486 49.4751C25.9988 49.6225 26.5666 49.6972 27.1362 49.6972C27.4445 49.6972 27.7503 49.6752 28.0524 49.6325C27.805 51.0891 26.6679 52.2507 25.1669 52.4964C25.1651 52.4966 25.1633 52.4967 25.1615 52.4969C24.6725 52.577 24.165 52.5519 23.6861 52.4235C23.0816 52.2615 22.4607 52.6203 22.2987 53.2245C22.1368 53.8288 22.4954 54.45 23.0998 54.6119C23.2603 54.6549 23.4229 54.6882 23.5863 54.7172C23.0461 55.344 22.2473 55.7343 21.3754 55.7343C19.7682 55.7343 18.4606 54.4267 18.4606 52.8194V33.8622C18.7414 33.9245 19.0306 33.9576 19.3252 33.9576C20.3825 33.9576 21.3764 33.546 22.1238 32.7984C22.5661 32.3559 22.566 31.6388 22.1236 31.1964C21.6812 30.754 20.964 30.7542 20.5215 31.1965C20.2021 31.5161 19.7772 31.692 19.3251 31.692C19.0155 31.692 18.7195 31.6076 18.4604 31.4528V25.9774C18.4604 24.8958 19.3405 24.0158 20.422 24.0158C21.3761 24.0158 22.1722 24.7005 22.3471 25.6042C21.7738 25.9977 21.2941 26.5121 20.9408 27.1241C20.628 27.6659 20.8136 28.3587 21.3555 28.6715C21.5339 28.7746 21.7286 28.8234 21.9207 28.8234C22.3122 28.8234 22.6931 28.6203 22.9029 28.2569C23.1556 27.8192 23.5319 27.4759 23.9909 27.2643C23.9934 27.2632 23.9957 27.2617 23.9982 27.2605C24.3158 27.115 24.6555 27.0411 25.0084 27.0411C26.3491 27.0411 27.4398 28.1318 27.4398 29.4725C27.4398 29.7452 27.3947 30.0127 27.3064 30.268C27.3055 30.2706 27.3043 30.2729 27.3034 30.2755C27.1114 30.8246 26.728 31.2873 26.2241 31.5782C25.6823 31.8909 25.4967 32.5838 25.8095 33.1256C26.0193 33.489 26.4001 33.6922 26.7917 33.6922C26.9838 33.6922 27.1785 33.6432 27.357 33.5403C27.9176 33.2166 28.4004 32.7823 28.7804 32.27C29.4962 32.9257 29.9264 33.8627 29.9264 34.8602C29.9264 35.6368 29.667 36.3856 29.2014 36.9935C29.0763 36.9517 28.9506 36.9124 28.8235 36.8783C28.2188 36.7165 27.5981 37.0751 27.4361 37.6793C27.2741 38.2836 27.6328 38.9048 28.2371 39.0667C28.4995 39.137 28.7563 39.233 29.0003 39.3519C29.0032 39.3533 29.0061 39.3542 29.0089 39.3556C30.4783 40.0774 31.3908 41.5404 31.3908 43.1766C31.3912 44.9161 30.3513 46.4617 28.7414 47.118ZM56.7332 9.514C56.4625 9.80955 55.0939 10.5807 51.4934 11.035C50.8727 11.1133 50.433 11.68 50.5113 12.3007C50.5836 12.8733 51.0713 13.2918 51.6337 13.2918C51.681 13.2918 51.7289 13.2889 51.777 13.2827C53.8911 13.016 55.5441 12.6263 56.7332 12.1174V15.1778C56.5379 15.3874 55.7287 15.8936 53.6852 16.3333C51.7089 16.7584 49.1705 16.9926 46.5379 16.9926C43.9052 16.9926 41.367 16.7584 39.3905 16.3333C37.3466 15.8935 36.5377 15.3872 36.3426 15.1777V12.1174C37.5315 12.6262 39.1844 13.0159 41.2981 13.2826C41.3462 13.2887 41.394 13.2917 41.4414 13.2917C42.0038 13.2917 42.4916 12.8732 42.5638 12.3006C42.6422 11.6799 42.2025 11.1132 41.5817 11.0349C37.9813 10.5805 36.613 9.80932 36.3426 9.51389V6.44319C39.6815 7.87268 45.6285 7.92966 46.5379 7.92966C47.4473 7.92966 53.3944 7.87268 56.7332 6.44307V9.514ZM39.396 2.92661C41.3752 2.50033 43.9117 2.26562 46.5379 2.26562C49.1641 2.26562 51.7006 2.50033 53.6798 2.92661C55.406 3.2984 56.254 3.71708 56.5948 3.96483C56.2539 4.21257 55.406 4.63126 53.6798 5.00305C51.7006 5.42932 49.1642 5.66404 46.5379 5.66404C43.9116 5.66404 41.3752 5.42932 39.396 5.00305C37.6698 4.63126 36.8218 4.21246 36.4809 3.96483C36.8219 3.71708 37.6698 3.2984 39.396 2.92661ZM53.6878 21.997C51.7115 22.4225 49.1723 22.6568 46.5379 22.6568C43.9034 22.6568 41.3642 22.4226 39.3879 21.997C37.3487 21.558 36.5392 21.0524 36.3426 20.8426V17.7775C36.8996 18.0133 37.5605 18.225 38.3276 18.4135C40.5451 18.9582 43.4608 19.2583 46.5379 19.2583C49.6149 19.2583 52.5306 18.9583 54.7481 18.4135C55.5153 18.225 56.1762 18.0133 56.7332 17.7775V20.8426C56.5367 21.0524 55.7271 21.5579 53.6878 21.997Z" fill="black"/>
<path d="M11.7204 13.5734C13.2181 12.0757 15.2095 11.2509 17.3275 11.2509C19.4455 11.2509 21.4369 12.0757 22.9346 13.5734C23.1558 13.7946 23.4457 13.9052 23.7356 13.9052C24.0255 13.9052 24.3153 13.7946 24.5366 13.5734C24.979 13.131 24.979 12.4137 24.5366 11.9712C22.6109 10.0455 20.0506 8.98512 17.3274 8.98512C14.6041 8.98512 12.0438 10.0455 10.1181 11.9712C9.67579 12.4136 9.67579 13.1309 10.1181 13.5734C10.5607 14.0157 11.2779 14.0157 11.7204 13.5734Z" fill="black"/>
<path d="M20.5313 17.1092C20.8212 17.1092 21.1111 16.9985 21.3324 16.7774C21.7747 16.335 21.7747 15.6177 21.3324 15.1754C20.2626 14.1055 18.8403 13.5164 17.3273 13.5164C15.8143 13.5164 14.392 14.1055 13.3223 15.1754C12.8799 15.6177 12.8799 16.335 13.3223 16.7774C13.7647 17.2198 14.482 17.2198 14.9244 16.7774C15.5661 16.1355 16.4196 15.7821 17.3274 15.7821C18.2353 15.7821 19.0887 16.1355 19.7305 16.7774C19.9516 16.9986 20.2414 17.1092 20.5313 17.1092Z" fill="black"/>
<path d="M16.1943 19.1804C16.1943 19.8061 16.7016 20.3132 17.3271 20.3132H17.3281C17.9536 20.3132 18.4604 19.8061 18.4604 19.1804C18.4604 18.5548 17.9528 18.0476 17.3271 18.0476C16.7015 18.0476 16.1943 18.5548 16.1943 19.1804Z" fill="black"/>
<path d="M46.537 11.3283C45.9115 11.3283 45.4047 11.8355 45.4047 12.4611C45.4047 13.0868 45.9122 13.5939 46.5378 13.5939C47.1635 13.5939 47.6706 13.0868 47.6706 12.4611C47.6706 11.8355 47.1634 11.3283 46.5378 11.3283H46.537Z" fill="black"/>
</g>
<defs>
<clipPath id="clip0">
<rect width="58" height="58" fill="white" transform="translate(0.998779)"/>
</clipPath>
</defs>
</svg>
