<svg width="59" height="58" viewBox="0 0 59 58" fill="none" xmlns="http://www.w3.org/2000/svg">
<g clip-path="url(#clip0)">
<path d="M38 20.5L42.5 17.25L47.125 24.625V33.5L42.5 40.375L39.125 38.75L36.75 30.25L38 20.5Z" fill="#00DCDC"/>
<path d="M24.7878 5.21104C11.6706 5.21104 0.998779 15.8828 0.998779 29.0001C0.998779 42.1174 11.6706 52.7892 24.7878 52.7892C37.9051 52.7892 48.5769 42.1174 48.5769 29.0001C48.5769 15.8827 37.9051 5.21104 24.7878 5.21104ZM24.7878 50.5235C12.9198 50.5235 3.2644 40.8682 3.2644 29.0001C3.2644 17.132 12.9198 7.47667 24.7878 7.47667C32.0228 7.47667 38.4353 11.065 42.3394 16.5551C41.622 16.6186 40.9323 16.8718 40.2869 17.3006L37.5597 14.5735C37.3473 14.3611 37.0591 14.2417 36.7587 14.2417H31.3701C30.9024 12.9232 29.6433 11.9761 28.1665 11.9761C26.2926 11.9761 24.768 13.5006 24.768 15.3745C24.768 17.2484 26.2926 18.773 28.1665 18.773C29.6432 18.773 30.9024 17.8258 31.3701 16.5073H36.2895L38.6621 18.88C38.31 19.3491 37.9817 19.884 37.6821 20.4834C37.2782 21.2911 36.9399 22.1908 36.6688 23.1552L34.7436 21.23C34.5312 21.0176 34.243 20.8982 33.9426 20.8982H22.9465C22.4788 19.5798 21.2197 18.6326 19.743 18.6326C17.8691 18.6326 16.3445 20.1571 16.3445 22.031C16.3445 23.9049 17.8691 25.4295 19.743 25.4295C21.2197 25.4295 22.4788 24.4823 22.9465 23.1639H33.4733L36.121 25.8116C36.0283 26.4812 35.9637 27.168 35.9306 27.8674H14.3979C13.9303 26.5489 12.6712 25.6018 11.1943 25.6018C9.32042 25.6018 7.79588 27.1263 7.79588 29.0002C7.79588 30.8741 9.32042 32.3987 11.1943 32.3987C12.6711 32.3987 13.9303 31.4515 14.3979 30.133H35.9308C35.9637 30.8324 36.0283 31.5193 36.1211 32.1889L33.4735 34.8366H22.9466C22.4789 33.5181 21.2198 32.571 19.7431 32.571C17.8692 32.571 16.3447 34.0955 16.3447 35.9694C16.3447 37.8433 17.8692 39.3678 19.7431 39.3678C21.2198 39.3678 22.4789 38.4207 22.9466 37.1022H33.9427C34.2431 37.1022 34.5313 36.9828 34.7437 36.7704L36.6689 34.8452C36.9399 35.8097 37.2783 36.7093 37.6822 37.517C37.9818 38.1163 38.3101 38.6513 38.6622 39.1203L36.2896 41.4929H31.3702C30.9025 40.1744 29.6434 39.2272 28.1666 39.2272C26.2927 39.2272 24.7681 40.7518 24.7681 42.6257C24.7681 44.4996 26.2927 46.0241 28.1666 46.0241C29.6433 46.0241 30.9025 45.077 31.3702 43.7585H36.7588C37.0593 43.7585 37.3474 43.6391 37.5598 43.4267L40.287 40.6996C40.9325 41.1284 41.6221 41.3816 42.3396 41.4451C38.4353 46.9352 32.0228 50.5235 24.7878 50.5235ZM38.1691 29.0001C38.1691 23.0321 40.5251 18.8611 42.6571 18.8052C42.9558 18.9242 43.8299 19.7949 44.6715 21.7668C44.7337 21.9125 44.7936 22.0605 44.8521 22.2099C44.7924 22.2054 44.7356 22.2032 44.6829 22.2032C44.0161 22.2032 42.7613 22.5059 41.8489 24.5333C41.3022 25.7481 41.0012 27.3345 41.0012 29.0001C41.0012 30.6657 41.3023 32.2521 41.8489 33.4669C42.7613 35.4943 44.0161 35.797 44.6829 35.797C44.7356 35.797 44.7924 35.7948 44.8521 35.7903C44.7936 35.9397 44.7337 36.0877 44.6715 36.2334C43.8299 38.2052 42.9558 39.0759 42.6572 39.1948C40.5251 39.1391 38.1691 34.968 38.1691 29.0001ZM46.0988 29.0001C46.0988 29.0911 46.0966 29.1821 46.0954 29.2732C46.0655 30.5074 45.8345 31.6844 45.4507 32.5371C45.081 33.3584 44.7355 33.5312 44.6829 33.5312C44.6302 33.5312 44.2847 33.3584 43.915 32.5371C43.503 31.6217 43.2668 30.3325 43.2668 29C43.2668 27.6675 43.503 26.3783 43.915 25.4629C44.2847 24.6416 44.6302 24.4687 44.6829 24.4687C44.7355 24.4687 45.081 24.6416 45.4507 25.4629C45.8344 26.3156 46.0655 27.4927 46.0954 28.7268C46.0966 28.8181 46.0988 28.9091 46.0988 29.0001ZM29.2993 15.3745C29.2993 15.9992 28.7911 16.5073 28.1665 16.5073C27.5418 16.5073 27.0336 15.9992 27.0336 15.3745C27.0336 14.7499 27.5418 14.2417 28.1665 14.2417C28.7911 14.2417 29.2993 14.7499 29.2993 15.3745ZM20.8757 22.0309C20.8757 22.6556 20.3675 23.1637 19.7429 23.1637C19.1182 23.1637 18.61 22.6556 18.61 22.0309C18.61 21.4063 19.1182 20.8981 19.7429 20.8981C20.3675 20.8981 20.8757 21.4063 20.8757 22.0309ZM12.3271 29.0001C12.3271 29.6247 11.819 30.1329 11.1943 30.1329C10.5697 30.1329 10.0615 29.6247 10.0615 29.0001C10.0615 28.3755 10.5697 27.8673 11.1943 27.8673C11.819 27.8673 12.3271 28.3755 12.3271 29.0001ZM20.8757 35.9693C20.8757 36.5939 20.3675 37.1021 19.7429 37.1021C19.1182 37.1021 18.61 36.5939 18.61 35.9693C18.61 35.3446 19.1182 34.8365 19.7429 34.8365C20.3675 34.8365 20.8757 35.3446 20.8757 35.9693ZM29.2993 42.6257C29.2993 43.2503 28.7911 43.7585 28.1665 43.7585C27.5418 43.7585 27.0336 43.2503 27.0336 42.6257C27.0336 42.0011 27.5418 41.4929 28.1665 41.4929C28.7911 41.4929 29.2993 42.0011 29.2993 42.6257Z" fill="black"/>
<path d="M8.18381 21.6377C8.35067 21.7244 8.52909 21.7654 8.7049 21.7654C9.1143 21.7654 9.50954 21.5428 9.71118 21.1544C10.4563 19.7194 11.4037 18.3997 12.5272 17.2317C12.961 16.7808 12.9471 16.0636 12.4962 15.6299C12.0453 15.1961 11.3282 15.2099 10.8944 15.6609C9.62022 16.9855 8.54563 18.4824 7.70044 20.1101C7.41214 20.6656 7.62851 21.3494 8.18381 21.6377Z" fill="black"/>
<path d="M57.8662 27.8673H53.1084C52.4827 27.8673 51.9756 28.3745 51.9756 29.0001C51.9756 29.6258 52.4827 30.1329 53.1084 30.1329H57.8662C58.4918 30.1329 58.999 29.6258 58.999 29.0001C58.999 28.3745 58.4918 27.8673 57.8662 27.8673Z" fill="black"/>
<path d="M50.9561 22.0972C51.1482 22.0972 51.343 22.0482 51.5214 21.9452L55.6419 19.5663C56.1838 19.2535 56.3694 18.5607 56.0565 18.0188C55.7437 17.4769 55.0508 17.2912 54.5091 17.6042L50.3886 19.9831C49.8468 20.2959 49.6611 20.9887 49.974 21.5306C50.1838 21.894 50.5646 22.0972 50.9561 22.0972Z" fill="black"/>
<path d="M55.6419 38.434L51.5214 36.0551C50.9797 35.7422 50.2869 35.9279 49.974 36.4697C49.6611 37.0116 49.8468 37.7044 50.3886 38.0172L54.5091 40.3961C54.6875 40.4992 54.8823 40.5481 55.0745 40.5481C55.466 40.5481 55.8467 40.3449 56.0565 39.9815C56.3694 39.4396 56.1838 38.7468 55.6419 38.434Z" fill="black"/>
<path d="M15.7259 14.4366C15.9073 14.4366 16.0914 14.3928 16.2622 14.3008C16.8131 14.0042 17.0192 13.3172 16.7226 12.7665C16.426 12.2157 15.7389 12.0096 15.1882 12.3061L15.1875 12.3064C14.6366 12.6031 14.4309 13.2898 14.7275 13.8407C14.9321 14.2206 15.3224 14.4366 15.7259 14.4366Z" fill="black"/>
</g>
<defs>
<clipPath id="clip0">
<rect width="58" height="58" fill="white" transform="translate(0.998779)"/>
</clipPath>
</defs>
</svg>
