<svg width="67" height="81" viewBox="0 0 67 81" fill="none" xmlns="http://www.w3.org/2000/svg">
<path d="M38.2289 3.69209C43.3052 4.85361 46.9905 9.78649 47.349 12.511L47.5497 14.0741L49.0841 13.7299C50.1739 13.4861 51.2207 12.5684 52.5543 11.4069C54.3181 9.85818 56.5264 7.93666 58.6917 7.93666C58.7778 7.93666 58.8638 7.93666 58.9355 7.951C60.5702 8.06572 61.7461 8.8544 62.5634 10.3744C64.5423 14.1028 63.5386 20.5987 61.9755 23.2802C60.814 25.4168 57.946 26.5066 57.9174 26.5066L56.3257 27.0946L57.1717 28.5716C60.4555 34.3218 61.9182 42.5958 61.0004 49.1634C60.1687 48.0163 59.5951 47.6721 58.8925 47.6721C58.4336 47.6721 58.0177 47.8585 57.7023 48.1883C56.9853 48.9483 57.057 50.0668 57.2004 52.7771C57.3581 55.6163 57.6019 59.9183 56.5694 63.2164C55.7664 61.5817 54.9777 60.793 53.8449 60.793C52.4396 60.793 51.6652 62.0549 50.6901 63.6753C49.586 65.4821 48.0803 67.9342 45.4561 69.4112C43.3769 70.501 41.9285 70.8738 40.6523 71.2036C38.1715 71.8346 36.4077 72.4369 33.6115 75.7063C30.8009 72.4369 29.0371 71.8489 26.5707 71.2036C25.2944 70.8738 23.8461 70.501 21.7955 69.4398C19.1427 67.9485 17.637 65.4821 16.5328 63.6753C15.5577 62.0692 14.7834 60.8073 13.3781 60.8073C12.2453 60.8073 11.4422 61.596 10.6392 63.2307C9.60674 59.9326 9.85052 55.6163 10.0083 52.7914C10.166 50.0812 10.2234 48.9627 9.50636 48.2027C9.19089 47.8729 8.77503 47.6865 8.31616 47.6865C7.61351 47.6865 7.03992 48.0306 6.19388 49.1921C5.1901 42.1226 7.1403 33.6192 10.0226 28.5859L10.9834 26.9081L9.09051 26.478C7.45578 26.1051 5.96444 24.6425 4.91764 22.3768C3.12517 18.5051 2.93876 13.1276 4.48745 10.0733C6.10784 7.69288 7.47011 7.40609 8.35918 7.40609C9.79315 7.40609 11.6 8.28081 13.7079 10.0159C15.486 11.4642 17.3932 13.3427 17.4076 13.3714L18.268 14.2318L19.2574 13.5292C20.5336 12.6114 23.9465 11.5646 26.6854 10.7186C27.7895 10.3744 28.5782 9.62875 28.8507 8.65364C28.9511 8.29515 28.9654 7.92232 28.9224 7.53514C30.3133 8.16609 31.0447 9.24157 31.6469 10.1163C32.0198 10.6612 32.3209 11.0914 32.7511 11.3925L34.9881 12.8839V11.1488C35.7051 10.8476 36.6802 10.3457 37.641 9.58573C38.8885 8.56761 39.3187 6.474 38.6591 4.60983C38.5444 4.28002 38.401 3.97889 38.2289 3.69209ZM36.0206 2C35.0311 2 32.9375 2.41585 32.9375 2.41585C32.9375 2.41585 38.8294 4.60983 36.7232 8.46723C35.1602 9.72913 33.5398 10.145 33.5398 10.145V10.1593C32.6364 9.54271 31.5035 5.54192 26.2552 5.54192C28.5065 7.99402 27.216 9.02648 26.2552 9.31327C23.0287 10.3027 19.8453 11.3065 18.4114 12.3246C18.4114 12.3246 16.4611 10.3888 14.6113 8.88308C12.2309 6.91854 10.1803 5.94343 8.35918 5.94343C6.40897 5.94343 4.74556 7.06193 3.23989 9.31327C0.357597 14.8628 2.62328 26.4493 8.7607 27.8546C5.00368 34.4078 3.15385 45.2774 5.53425 52.9348C7.08294 50.2102 7.88597 49.1061 8.28748 49.1061C9.5924 49.1061 6.48067 61.0654 10.7252 66.6723C11.9011 63.4315 12.6468 62.227 13.3351 62.227C14.8264 62.227 16.0596 67.8768 21.0499 70.6874C27.2877 73.9569 28.3201 71.2323 33.5685 77.9864C38.8168 71.2323 39.8493 73.9569 46.0871 70.6874C51.0773 67.8768 52.3249 62.2413 53.8162 62.2413C54.5045 62.2413 55.2358 63.4458 56.4117 66.6866C60.6706 61.0798 57.5445 49.1204 58.8495 49.1204C59.251 49.1204 60.054 50.2246 61.6027 52.9491C63.9831 45.22 62.1476 34.4795 58.3762 27.8689C58.3762 27.8689 61.7461 26.6357 63.1944 23.9828C65.8473 19.3941 66.6073 7.04759 58.9929 6.53136C58.8781 6.51702 58.7634 6.51702 58.6487 6.51702C54.3468 6.51702 50.7332 11.8944 48.7256 12.3533C48.2954 8.75402 43.2048 2 36.0206 2Z" fill="#060707" stroke="#363636" stroke-width="3.49766"/>
<path d="M33.5971 76.8106C30.4424 72.9389 28.7072 72.4943 26.3699 71.8921C25.0506 71.5479 23.5593 71.1751 21.4083 70.0422C18.6121 68.4649 17.049 65.9124 15.9019 64.0339C14.9698 62.5139 14.3532 61.4958 13.3494 61.4958C12.3743 61.4958 11.6429 62.3848 10.5818 65.052C8.775 61.4814 9.07613 56.0897 9.26254 52.7198C9.40594 50.0956 9.43462 49.1636 8.96141 48.6617C8.78933 48.4753 8.54556 48.3749 8.28744 48.3749C7.69951 48.3749 7.1546 48.7907 5.77798 51.0708C4.11457 43.528 6.16516 33.777 9.37726 28.1988L9.87915 27.3671L8.93273 27.152C6.55233 26.6071 5.08968 24.3988 4.27231 22.6494C2.37946 18.5769 2.22173 12.8553 3.88514 9.64321C5.21873 7.66432 6.69573 6.66054 8.35914 6.66054C9.99387 6.66054 11.8867 7.56394 14.1524 9.42811C15.9592 10.9051 17.8951 12.8123 17.9094 12.8266L18.3396 13.2568L18.8272 12.8983C20.1894 11.9089 23.5163 10.8908 26.4559 9.98736C27.3306 9.71491 27.9329 9.14131 28.1337 8.40999C28.3057 7.79338 28.1767 7.11941 27.7608 6.37374C30.299 6.84695 31.4175 8.49603 32.2061 9.65755C32.536 10.1451 32.7941 10.5179 33.1239 10.7474L34.2424 11.493V10.6613C34.8877 10.4319 36.0349 9.93 37.1534 9.0266C38.1858 8.19489 38.5156 6.44544 37.9564 4.85373C37.7987 4.32316 37.3685 3.43409 36.422 2.73145C42.8893 2.97522 47.6214 9.06962 48.0659 12.4251L48.1663 13.1995L48.9263 13.0274C49.8441 12.8266 50.8335 11.9519 52.081 10.8621C53.9452 9.22735 56.2539 7.20545 58.6917 7.20545C58.7921 7.20545 58.8924 7.20545 58.9928 7.21979C60.857 7.34885 62.2766 8.29527 63.1944 10.0304C65.3166 14.0312 64.2698 20.7422 62.6064 23.6101C61.2872 26.0192 58.1898 27.1807 58.1611 27.1807L57.3581 27.4675L57.7739 28.1988C61.4449 34.6231 62.8789 44.116 61.3589 51.0564C59.9823 48.7764 59.4517 48.3605 58.8638 48.3605C58.6056 48.3605 58.3762 48.4609 58.1898 48.6473C57.7166 49.1492 57.7453 50.0813 57.8887 52.7055C58.0751 56.0753 58.3762 61.4814 56.5694 65.0377C55.5082 62.3848 54.7913 61.4814 53.8162 61.4814C52.8124 61.4814 52.1958 62.4852 51.2637 64.0196C50.1165 65.8837 48.5535 68.4362 45.7429 70.0279C43.6063 71.1464 42.1149 71.5336 40.7957 71.8634C38.487 72.4943 36.7519 72.9389 33.5971 76.8106Z" fill="#060707"/>
<path d="M36.9669 32.5434C37.1533 33.0883 38.2575 36.1857 42.4303 41.1903C43.8786 42.9254 45.7572 45.822 44.0507 50.0092C42.6741 52.1028 43.5488 53.9096 42.4303 53.9096C41.3118 53.9096 39.4333 53.6515 37.9133 52.7911C36.5654 52.0168 35.4325 51.73 35.1744 51.6726V47.973C37.8416 47.4281 39.8062 45.5066 39.8062 43.2122C39.8062 40.502 37.0529 39.068 33.6544 39.068C30.2559 39.068 27.5027 40.502 27.5027 43.2122C27.5027 45.5066 29.4815 47.4281 32.1344 47.973V51.6726C31.8906 51.73 30.7434 52.0168 29.3955 52.7911C27.8755 53.6515 25.997 53.9096 24.8785 53.9096C23.76 53.9096 24.6204 52.1028 23.2581 50.0092C21.566 45.822 23.4445 42.9254 24.8785 41.1903C29.0513 36.1857 30.7865 33.0166 31.0016 32.5434C31.4031 31.64 32.1918 29.8762 33.9699 29.8762C35.7767 29.8762 36.6658 31.6543 36.9669 32.5434Z" fill="white"/>
<path d="M33.6834 54.5552C34.8736 54.5552 37.3401 56.3046 38.7741 56.3046C38.7741 56.3046 36.0782 57.3658 33.6834 57.3658C31.2887 57.3658 28.5498 56.2329 28.5498 56.2329C30.0125 56.2329 32.5363 54.5552 33.6834 54.5552Z" fill="#00DCDC"/>
<path d="M33.712 20.986C33.712 20.986 40.5377 20.398 45.8721 19.7958C51.2065 19.2078 52.6835 20.6131 53.1997 20.6992C53.7446 17.8456 54.9492 15.3935 57.43 15.3935C58.6058 15.3935 59.2654 16.7414 58.5485 23.0939C62.0187 19.7671 62.0474 12.4251 58.8783 11.7655C55.7235 11.1202 52.9703 14.8485 50.3318 16.2825C48.482 17.2863 47.5642 17.3437 46.4601 17.3293C46.3167 15.9384 46.4457 14.9919 45.5136 12.8553C44.5815 10.7187 40.9106 7.63565 39.8494 7.50659C40.1649 10.4176 38.8026 11.9806 37.426 12.9127C37.1822 13.0848 36.9385 13.2282 36.7234 13.3572C35.1603 14.0168 34.5437 14.2606 32.6365 14.5044C31.9482 14.0742 31.1452 12.4825 30.1844 11.5791C28.4063 13.8448 26.4848 13.4289 22.6274 14.9059C21.05 15.5082 18.4258 17.2433 18.4258 17.2433C15.3858 13.7874 11.3994 10.5036 8.23027 11.1489C5.07552 11.7942 4.76005 18.6629 8.05819 22.506C7.3412 16.1391 8.70348 15.3648 9.89368 15.3648C12.3745 15.3648 13.579 17.8312 14.1239 20.6992C14.6832 20.5844 18.2968 18.878 24.5346 19.7671" fill="#00DCDC"/>
<path d="M17.1928 41.8789C16.0456 41.8789 14.9271 41.6351 13.8659 41.1619C11.8297 40.2442 10.324 38.7815 9.36326 36.8313C8.66061 38.9106 8.00098 40.8464 8.13004 44.6034C8.13004 44.6034 11.6289 39.4411 11.5572 43.1264C11.4855 46.8118 12.4607 53.0496 13.2637 55.3869C15.1135 60.7787 19.4871 63.1017 22.4555 62.8006C18.5981 60.7213 17.4222 55.5877 17.4222 51.6156C17.4222 48.3318 20.0751 45.9801 17.6803 41.8789C17.4939 41.8789 17.3362 41.8789 17.1928 41.8789Z" fill="#00DCDC"/>
<path d="M50.0596 41.8789C51.2067 41.8789 52.3252 41.6351 53.3864 41.1619C55.4226 40.2442 56.9283 38.7815 57.8891 36.8313C58.5917 38.9106 59.2513 40.8464 59.1223 44.6034C59.1223 44.6034 55.6234 39.4411 55.6951 43.1264C55.7668 46.8118 54.7917 53.0496 53.9887 55.3869C52.1388 60.7787 47.7652 63.1017 44.7969 62.8006C48.6543 60.7213 49.8301 55.5877 49.8301 51.6156C49.8301 48.3318 47.1773 45.9801 49.572 41.8789C49.7584 41.8789 49.9162 41.8789 50.0596 41.8789Z" fill="#00DCDC"/>
<path d="M32.2063 26.4205C32.1059 25.3164 31.8048 24.2696 31.3315 23.3518H36.6659C36.1927 24.2696 35.8916 25.3164 35.7912 26.4205C35.2176 26.1624 34.6153 26.0333 33.9987 26.0333C33.3821 26.0333 32.7799 26.1767 32.2063 26.4205Z" fill="#00DCDC"/>
<path d="M52.9559 24.8143C51.2638 23.0219 47.5784 23.2083 45.6426 23.8106C48.4102 23.954 50.4321 25.8898 50.8049 27.3955C51.1204 28.6431 50.8336 30.9518 50.8336 30.9518C50.9339 30.9231 54.5332 26.4778 52.9559 24.8143Z" fill="white"/>
<path d="M28.9939 25.0726C27.3018 23.2802 23.6165 23.4666 21.6807 24.0689C24.4482 24.2123 26.4701 26.1481 26.843 27.6538C27.1584 28.9014 26.8716 31.2101 26.8716 31.2101C26.972 31.1814 30.557 26.7361 28.9939 25.0726Z" fill="white"/>
</svg>
