<svg width="59" height="58" viewBox="0 0 59 58" fill="none" xmlns="http://www.w3.org/2000/svg">
<path d="M47.593 16.125L43.093 11.625L51.468 0.875L56.093 3.125L56.718 6.5L47.593 16.125Z" fill="#00DCDC"/>
<path d="M15.468 35.125L11.468 31.625L17.968 25.5L22.7749 24.5546L23.3999 27.9296L15.468 35.125Z" fill="#00DCDC"/>
<path d="M23.2093 43.5584L26.7608 47.5128L32.8012 40.9341L33.6843 36.1154L30.3015 35.5341L23.2093 43.5584Z" fill="#00DCDC"/>
<path d="M9.34302 57L1.71802 56L3.46802 46.125L8.59302 43.75L15.093 50.875L9.34302 57Z" fill="#00DCDC"/>
<path d="M56.9321 1.94745C56.8936 1.89183 56.8501 1.83983 56.8023 1.79191L56.6752 1.66481C56.6274 1.61701 56.5753 1.57351 56.5197 1.53499C52.902 -0.973864 47.4209 0.142757 44.4759 1.03179C40.1387 2.34088 35.8852 4.71346 33.3751 7.22344L32.0198 8.57875C31.5774 9.02111 31.5774 9.73841 32.0198 10.1808C32.4621 10.6231 33.1794 10.6231 33.6218 10.1808L34.9771 8.82547C37.2047 6.5979 41.19 4.39015 45.1304 3.2008C46.813 2.69296 48.395 2.39344 49.8232 2.29908L40.7635 11.3589C40.3949 11.4375 40.0181 11.5329 39.6322 11.6495C37.3796 12.3294 35.1621 13.5699 33.8449 14.887L25.0467 23.6852L19.698 24.1048L26.4127 17.39C26.8551 16.9477 26.8551 16.2304 26.4127 15.7879C25.9704 15.3454 25.2531 15.3455 24.8106 15.7879L5.95732 34.6414C5.74492 34.8538 5.62552 35.142 5.62552 35.4424C5.62552 35.7428 5.74492 36.031 5.95732 36.2434L9.3747 39.6608L7.57646 42.4239C4.78055 43.2956 2.80287 45.1551 1.69803 47.9613C0.607808 50.7299 0.468018 54.1746 0.468018 56.8664C0.468018 57.4921 0.975181 57.9992 1.60084 57.9992C4.29253 57.9992 7.73721 57.8594 10.5058 56.7694C13.312 55.6646 15.1717 53.6868 16.0434 50.8909L18.8064 49.0927L22.2238 52.51C22.4362 52.7224 22.7244 52.8418 23.0248 52.8418C23.3253 52.8418 23.6134 52.7224 23.8258 52.51L51.2436 25.0921C53.7537 22.582 56.1261 18.3284 57.4352 13.9912C58.3243 11.046 59.4409 5.56511 56.9321 1.94745ZM56.0317 5.70342L47.2798 14.4552C47.1598 13.6344 46.8975 12.915 46.4896 12.3267C46.451 12.2709 46.4073 12.2188 46.3594 12.1709L46.2959 12.1074C46.2482 12.0597 46.1963 12.0163 46.1408 11.9779C45.5791 11.5884 44.899 11.3299 44.124 11.2028L52.87 2.45677C53.7468 2.63043 54.5102 2.92201 55.1342 3.33289C55.5618 3.98233 55.861 4.78165 56.0317 5.70342ZM44.7138 13.7537C45.8835 15.7789 44.1644 20.834 41.9783 23.0201L41.4164 23.582L34.8852 17.0509L35.447 16.4891C37.6332 14.303 42.6884 12.5841 44.7138 13.7537ZM23.4896 41.5088L16.9586 34.9777L33.2832 18.653L39.8143 25.1842L23.4896 41.5088ZM22.5806 26.1514L15.3564 33.3756L12.8919 30.911L17.2318 26.571L22.5806 26.1514ZM2.7451 55.7223C2.8611 50.1116 3.91858 46.0982 7.98133 44.676L10.0853 46.78L7.88005 48.9852C7.43757 49.4275 7.43757 50.1448 7.88005 50.5872C8.10129 50.8084 8.39118 50.919 8.68107 50.919C8.97096 50.919 9.26096 50.8083 9.48209 50.5872L11.6875 48.3819L13.7914 50.4859C12.3691 54.5487 8.35561 55.6061 2.7451 55.7223ZM15.2279 48.7184L9.74887 43.2394L11.0122 41.2983L17.1689 47.4551L15.2279 48.7184ZM23.0249 50.1069L8.36037 35.4425L11.2897 32.5132L25.9542 47.1775L23.0249 50.1069ZM27.5563 45.5754L25.0918 43.1108L32.316 35.8866L31.8963 41.2353L27.5563 45.5754ZM49.6417 23.4899L34.3624 38.7693L34.782 33.4206L43.5803 24.6223C44.8973 23.3053 46.138 21.0877 46.8179 18.8351C46.9173 18.5054 47.0024 18.182 47.0744 17.8649L56.1588 8.7805C56.0548 10.1727 55.758 11.7076 55.2663 13.3365C54.077 17.2769 51.8691 21.2622 49.6417 23.4899Z" fill="black"/>
<path d="M33.3815 25.1626L33.381 25.1621C32.9602 24.6991 32.244 24.6653 31.781 25.0862C31.318 25.507 31.2841 26.2237 31.7051 26.6866C31.9287 26.9325 32.2356 27.0574 32.5436 27.0574C32.8155 27.0574 33.0882 26.9601 33.3053 26.7627C33.7683 26.342 33.8025 25.6256 33.3815 25.1626Z" fill="black"/>
<path d="M29.3386 29.1282C28.8962 28.6858 28.1793 28.686 27.7368 29.1285C27.2944 29.5709 27.2947 30.2885 27.737 30.7309C27.9583 30.9521 28.2482 31.0627 28.5381 31.0627C28.8279 31.0627 29.1179 30.9521 29.3391 30.7309C29.7814 30.2885 29.7814 29.5712 29.3391 29.1287L29.3386 29.1282Z" fill="black"/>
<path d="M25.3334 33.1335C24.891 32.6911 24.174 32.6913 23.7316 33.1338C23.2892 33.5762 23.2894 34.2938 23.7318 34.7362C23.953 34.9574 24.2429 35.068 24.5328 35.068C24.8227 35.068 25.1127 34.9574 25.3338 34.7362C25.7762 34.2938 25.7762 33.5765 25.3338 33.134L25.3334 33.1335Z" fill="black"/>
<path d="M29.2165 14.1179C29.8422 14.1179 30.3493 13.6107 30.3493 12.985C30.3493 12.3594 29.8422 11.8522 29.2165 11.8522H29.2157C28.5901 11.8522 28.0834 12.3594 28.0834 12.985C28.0834 13.6107 28.5909 14.1179 29.2165 14.1179Z" fill="black"/>
</svg>
