<svg width="163" height="117" viewBox="0 0 163 117" fill="none" xmlns="http://www.w3.org/2000/svg">
<path d="M0.997559 92.3166V71.3069H5.39293C6.36013 71.3069 7.17688 71.4573 7.85391 71.7475C8.53095 72.0377 9.08978 72.4353 9.51964 72.9296C9.94951 73.424 10.2612 73.9828 10.4439 74.6276C10.6265 75.2724 10.7233 75.9279 10.7233 76.6157V77.3787C10.7233 77.9483 10.6803 78.4319 10.5943 78.8295C10.5083 79.2272 10.3686 79.571 10.1967 79.8612C9.86354 80.4093 9.35844 80.8821 8.67066 81.2798C9.37994 81.6129 9.89578 82.1073 10.2397 82.7521C10.5728 83.3969 10.7448 84.2888 10.7448 85.4065V86.5886C10.7448 88.437 10.2934 89.8556 9.40143 90.8335C8.50946 91.8115 7.08016 92.3058 5.11352 92.3058H0.997559V92.3166ZM4.00662 74.144V79.9257H5.36069C6.36013 79.9257 7.03717 79.6785 7.38106 79.1734C7.72495 78.6683 7.8969 77.9376 7.8969 76.9704C7.8969 76.0247 7.70346 75.3154 7.31658 74.8425C6.9297 74.3697 6.24192 74.1332 5.23173 74.1332H4.00662V74.144ZM4.00662 82.5801V89.3075H5.30696C5.91952 89.3075 6.39237 89.2215 6.73626 89.0388C7.08016 88.8669 7.33808 88.6197 7.52077 88.2973C7.69271 87.9857 7.80018 87.6095 7.84317 87.1797C7.88615 86.7498 7.8969 86.2769 7.8969 85.7611C7.8969 85.2345 7.86466 84.7724 7.81093 84.3748C7.74645 83.9772 7.62823 83.644 7.45629 83.3754C7.26285 83.0959 6.99418 82.9025 6.66104 82.7735C6.32789 82.6446 5.88728 82.5801 5.32845 82.5801H4.00662Z" fill="#231F20"/>
<path d="M16.5156 92.3166V71.3069H19.5247V89.2968H25.4783V92.3058H16.5156V92.3166Z" fill="#231F20"/>
<path d="M29.0247 92.3166L33.7102 71.3176H36.2142L40.8997 92.3166H37.8906L37.0094 87.803H32.9149L32.0337 92.3166H29.0247ZM36.4506 84.9659L34.9783 77.3572H34.9246L33.4523 84.9659H36.4506Z" fill="#231F20"/>
<path d="M44.3602 92.3166V89.6621L50.0237 74.144H44.6504V71.3069H53.2907V73.6926L47.509 89.4794H53.2907V92.3058H44.3602V92.3166Z" fill="#231F20"/>
<path d="M58.1912 92.3166V71.3069H61.2002V92.3058H58.1912V92.3166Z" fill="#231F20"/>
<path d="M66.9604 92.3166V71.3069H69.8513L74.3971 83.9664H74.4616V71.3069H77.4707V92.3058H74.6335L70.034 79.6785H69.9803V92.3058H66.9604V92.3166Z" fill="#231F20"/>
<path d="M82.9407 76.2611C82.9407 75.4121 83.0911 74.6706 83.3813 74.015C83.6822 73.3702 84.0691 72.8222 84.5634 72.3923C85.0363 71.9839 85.5736 71.6615 86.1754 71.4466C86.7772 71.2317 87.379 71.1242 87.9916 71.1242C88.6041 71.1242 89.206 71.2317 89.8078 71.4466C90.4096 71.6615 90.9577 71.9732 91.4413 72.3923C91.9141 72.8222 92.301 73.3702 92.5912 74.015C92.8813 74.6598 93.0318 75.4121 93.0318 76.2611V77.325H90.0227V76.2611C90.0227 75.5303 89.8185 74.993 89.4209 74.6491C89.0125 74.3052 88.5397 74.1333 87.9916 74.1333C87.4435 74.1333 86.9599 74.3052 86.5623 74.6491C86.1647 74.993 85.9605 75.5303 85.9605 76.2611V87.3516C85.9605 88.0824 86.1647 88.6197 86.5623 88.9636C86.9599 89.3075 87.4435 89.4795 87.9916 89.4795C88.5397 89.4795 89.0233 89.3075 89.4209 88.9636C89.8293 88.6197 90.0227 88.0824 90.0227 87.3516V83.3969H87.637V80.7424H93.0318V87.3516C93.0318 88.2329 92.8813 88.9959 92.5912 89.6192C92.301 90.2532 91.9141 90.7691 91.4413 91.1882C90.9469 91.618 90.4096 91.9512 89.8078 92.1661C89.206 92.3811 88.6041 92.4885 87.9916 92.4885C87.379 92.4885 86.7772 92.3811 86.1754 92.1661C85.5736 91.9512 85.0363 91.6288 84.5634 91.1882C84.0691 90.7798 83.6822 90.2532 83.3813 89.6192C83.0911 88.9959 82.9407 88.2329 82.9407 87.3516V76.2611Z" fill="#231F20"/>
<path d="M107.078 92.3166V71.3069H111.473C112.44 71.3069 113.257 71.4573 113.934 71.7475C114.611 72.0377 115.17 72.4353 115.6 72.9296C116.029 73.424 116.341 73.9828 116.535 74.6276C116.728 75.2724 116.814 75.9279 116.814 76.6157V77.3787C116.814 77.9483 116.771 78.4319 116.685 78.8295C116.599 79.2272 116.459 79.571 116.287 79.8612C115.954 80.4093 115.438 80.8821 114.751 81.2798C115.46 81.6129 115.976 82.1073 116.32 82.7521C116.653 83.3969 116.825 84.2888 116.825 85.4065V86.5886C116.825 88.437 116.373 89.8556 115.481 90.8335C114.589 91.8222 113.16 92.3058 111.193 92.3058H107.078V92.3166ZM110.087 74.144V79.9257H111.441C112.44 79.9257 113.117 79.6785 113.461 79.1734C113.805 78.6683 113.977 77.9376 113.977 76.9704C113.977 76.0247 113.783 75.3154 113.397 74.8425C113.01 74.3697 112.322 74.1332 111.322 74.1332H110.087V74.144ZM110.087 82.5801V89.3075H111.387C111.999 89.3075 112.472 89.2215 112.816 89.0388C113.16 88.8669 113.418 88.6197 113.601 88.2973C113.783 87.9857 113.88 87.6095 113.923 87.1797C113.966 86.7498 113.977 86.2769 113.977 85.7611C113.977 85.2345 113.945 84.7724 113.891 84.3748C113.837 83.9772 113.708 83.644 113.536 83.3754C113.343 83.0959 113.074 82.9025 112.741 82.7735C112.408 82.6446 111.967 82.5801 111.408 82.5801H110.087Z" fill="#231F20"/>
<path d="M122.596 92.3166V71.3069H131.559V74.144H125.605V80.3126H130.796V83.1389H125.605V89.3075H131.559V92.3166H122.596Z" fill="#231F20"/>
<path d="M135.105 92.3166L139.79 71.3176H142.294L146.98 92.3166H143.971L143.09 87.803H138.984L138.103 92.3166H135.105ZM142.531 84.9659L141.058 77.3572H141.005L139.532 84.9659H142.531Z" fill="#231F20"/>
<path d="M151.407 92.3166V71.3069H156.243C159.779 71.3069 161.552 73.3595 161.552 77.4755C161.552 78.7113 161.359 79.7645 160.972 80.635C160.585 81.5054 159.919 82.204 158.952 82.7306L162.197 92.3166H159.016L156.211 83.3539H154.417V92.3166H151.407ZM154.417 74.144V80.6887H156.125C156.652 80.6887 157.082 80.6135 157.393 80.463C157.705 80.3126 157.952 80.1084 158.135 79.829C158.296 79.5496 158.404 79.2164 158.457 78.808C158.522 78.4104 158.543 77.9376 158.543 77.411C158.543 76.8844 158.511 76.4115 158.457 76.0139C158.404 75.6055 158.285 75.2616 158.103 74.9715C157.726 74.4234 157.017 74.144 155.975 74.144H154.417Z" fill="#231F20"/>
<path d="M51.2919 116.615V107.437H53.237C53.9893 107.437 54.5696 107.641 54.9565 108.06C55.3434 108.469 55.5475 109.06 55.5475 109.812V114.111C55.5475 114.971 55.3434 115.605 54.9242 116.013C54.5051 116.421 53.9033 116.626 53.1295 116.626H51.2919V116.615ZM52.6137 108.673V115.379H53.2155C53.5809 115.379 53.8496 115.282 54 115.099C54.1505 114.917 54.2365 114.627 54.2365 114.229V109.801C54.2365 109.436 54.1612 109.157 54.0215 108.963C53.8711 108.77 53.6131 108.662 53.2263 108.662H52.6137V108.673Z" fill="#00DCDC" stroke="#00DCDC" stroke-width="0.304667" stroke-miterlimit="10"/>
<path d="M61.9847 116.615V107.437H63.2958V116.615H61.9847Z" fill="#00DCDC" stroke="#00DCDC" stroke-width="0.304667" stroke-miterlimit="10"/>
<path d="M69.6578 109.597C69.6578 109.232 69.7223 108.899 69.8513 108.619C69.9802 108.34 70.1522 108.103 70.3671 107.91C70.5713 107.727 70.8077 107.588 71.0656 107.502C71.3236 107.416 71.5922 107.362 71.8609 107.362C72.1296 107.362 72.3875 107.405 72.6562 107.502C72.9248 107.598 73.1612 107.738 73.3762 107.91C73.5804 108.103 73.7523 108.34 73.8813 108.619C74.0102 108.899 74.0747 109.232 74.0747 109.597V110.059H72.7636V109.597C72.7636 109.275 72.6776 109.049 72.4949 108.899C72.323 108.748 72.1081 108.673 71.8716 108.673C71.6352 108.673 71.4203 108.748 71.2483 108.899C71.0764 109.049 70.9797 109.286 70.9797 109.597V114.444C70.9797 114.766 71.0657 114.992 71.2483 115.142C71.4203 115.293 71.6352 115.368 71.8716 115.368C72.1081 115.368 72.323 115.293 72.4949 115.142C72.6669 114.992 72.7636 114.756 72.7636 114.444V112.714H71.7104V111.553H74.0747V114.444C74.0747 114.831 74.0102 115.164 73.8813 115.433C73.7523 115.712 73.5804 115.938 73.3762 116.12C73.1612 116.314 72.9248 116.454 72.6562 116.55C72.3875 116.647 72.1296 116.69 71.8609 116.69C71.5922 116.69 71.3343 116.647 71.0656 116.55C70.797 116.454 70.5713 116.314 70.3671 116.12C70.1522 115.938 69.9802 115.712 69.8513 115.433C69.7223 115.153 69.6578 114.831 69.6578 114.444V109.597Z" fill="#00DCDC" stroke="#00DCDC" stroke-width="0.304667" stroke-miterlimit="10"/>
<path d="M80.426 116.615V107.437H81.7371V116.615H80.426Z" fill="#00DCDC" stroke="#00DCDC" stroke-width="0.304667" stroke-miterlimit="10"/>
<path d="M89.0448 116.615V108.673H87.5188V107.437H91.8819V108.673H90.3559V116.615H89.0448Z" fill="#00DCDC" stroke="#00DCDC" stroke-width="0.304667" stroke-miterlimit="10"/>
<path d="M96.3204 116.615L98.373 107.437H99.4692L101.522 116.615H100.211L99.8238 114.637H98.0292L97.6423 116.615H96.3204ZM99.5659 113.402L98.9211 110.07H98.8996L98.2548 113.402H99.5659Z" fill="#00DCDC" stroke="#00DCDC" stroke-width="0.304667" stroke-miterlimit="10"/>
<path d="M107.314 116.615V107.437H108.625V115.304H111.226V116.615H107.314Z" fill="#00DCDC" stroke="#00DCDC" stroke-width="0.304667" stroke-miterlimit="10"/>
<path d="M81.103 56.7452C78.7387 53.8436 77.4384 53.5105 75.6867 53.0591C74.698 52.8012 73.5803 52.5218 71.9683 51.6728C69.8727 50.4907 68.7013 48.5778 67.8416 47.17C67.1431 46.0308 66.681 45.2678 65.9287 45.2678C65.1979 45.2678 64.6499 45.9341 63.8546 47.933C62.5005 45.2571 62.7262 41.2163 62.8659 38.6909C62.9734 36.7242 62.9949 36.0257 62.6402 35.6496C62.5113 35.5099 62.3286 35.4346 62.1351 35.4346C61.6945 35.4346 61.2862 35.7463 60.2545 37.455C59.0079 31.8023 60.5446 24.4946 62.9519 20.3141L63.328 19.6908L62.6187 19.5296C60.8348 19.1212 59.7386 17.4663 59.1261 16.1552C57.7075 13.1031 57.5893 8.81522 58.8359 6.40797C59.8354 4.92493 60.9423 4.17267 62.1889 4.17267C63.414 4.17267 64.8326 4.84971 66.5305 6.24677C67.8846 7.35367 69.3354 8.78298 69.3461 8.79372L69.6685 9.11612L70.0339 8.84746C71.0549 8.10594 73.5481 7.34293 75.7511 6.66589C76.4067 6.4617 76.858 6.03184 77.0085 5.48376C77.1375 5.02165 77.0407 4.51656 76.7291 3.95773C78.6312 4.31237 79.4695 5.54824 80.0605 6.41872C80.3077 6.7841 80.5012 7.06351 80.7483 7.23546L81.5866 7.79428V7.17098C82.0702 6.99903 82.9299 6.6229 83.7681 5.94586C84.5419 5.32256 84.7891 4.01147 84.3699 2.81859C84.2517 2.42097 83.9293 1.75467 83.2201 1.22809C88.0668 1.41078 91.6132 5.9781 91.9463 8.49282L92.0215 9.07313L92.5911 8.94418C93.2789 8.79372 94.0204 8.13818 94.9554 7.32143C96.3524 6.09632 98.0827 4.58104 99.9096 4.58104C99.9848 4.58104 100.06 4.58104 100.135 4.59179C101.532 4.68851 102.596 5.39778 103.284 6.69813C104.875 9.69644 104.09 14.7259 102.843 16.8752C101.855 18.6806 99.5335 19.5511 99.512 19.5511L98.9101 19.766L99.2218 20.3141C101.973 25.1286 103.048 32.2429 101.908 37.4443C100.877 35.7355 100.479 35.4239 100.039 35.4239C99.8451 35.4239 99.6732 35.4991 99.5335 35.6388C99.1788 36.015 99.2003 36.7135 99.3078 38.6801C99.4475 41.2056 99.6732 45.2571 98.3191 47.9222C97.5238 45.9341 96.9865 45.2571 96.2557 45.2571C95.5035 45.2571 95.0414 46.0093 94.3428 47.1592C93.4831 48.5563 92.3117 50.4692 90.2054 51.6621C88.6041 52.5003 87.4865 52.7905 86.4978 53.0376C84.7676 53.5105 83.4672 53.8436 81.103 56.7452Z" fill="#060707"/>
<path d="M84.5741 1.9481C88.3784 2.81857 91.1403 6.51542 91.409 8.55728L91.5594 9.72866L92.7093 9.47074C93.5261 9.28805 94.3106 8.60027 95.31 7.72979C96.6318 6.56915 98.2868 5.1291 99.9096 5.1291C99.974 5.1291 100.039 5.1291 100.092 5.13985C101.317 5.22582 102.199 5.81689 102.811 6.95603C104.294 9.75016 103.542 14.6184 102.371 16.628C101.5 18.2293 99.3507 19.046 99.3292 19.046L98.1364 19.4866L98.7704 20.5935C101.231 24.9029 102.328 31.1037 101.64 36.0257C101.016 35.166 100.587 34.908 100.06 34.908C99.7161 34.908 99.4045 35.0477 99.168 35.2949C98.6307 35.8645 98.6844 36.7027 98.7919 38.7338C98.9101 40.8617 99.0928 44.0857 98.3191 46.5574C97.7172 45.3323 97.1262 44.7412 96.2772 44.7412C95.224 44.7412 94.6437 45.6869 93.9129 46.9013C93.0854 48.2554 91.957 50.093 89.9904 51.1999C88.4321 52.0167 87.3467 52.2961 86.3903 52.5433C84.5311 53.0161 83.2093 53.4675 81.1137 55.9177C79.0073 53.4675 77.6855 53.0269 75.8371 52.5433C74.8806 52.2961 73.7952 52.0167 72.2585 51.2214C70.2703 50.1038 69.1419 48.2554 68.3144 46.9013C67.5837 45.6977 67.0033 44.752 65.9502 44.752C65.1012 44.752 64.4994 45.343 63.8976 46.5681C63.1238 44.0964 63.3065 40.8617 63.4247 38.7446C63.5429 36.7135 63.5859 35.8752 63.0486 35.3057C62.8122 35.0585 62.5005 34.9188 62.1566 34.9188C61.63 34.9188 61.2002 35.1767 60.5661 36.0472C59.8138 30.7491 61.2754 24.3763 63.4355 20.6043L64.1555 19.3469L62.7369 19.0245C61.5118 18.7451 60.3942 17.6489 59.6097 15.951C58.2663 13.0494 58.1266 9.01938 59.2873 6.73035C60.5016 4.94641 61.5226 4.73148 62.1889 4.73148C63.2635 4.73148 64.6176 5.38702 66.1974 6.68736C67.5299 7.77277 68.9592 9.18058 68.97 9.20208L69.6148 9.84688L70.3563 9.32029C71.3128 8.63251 73.8705 7.848 75.9231 7.21395C76.7506 6.95603 77.3416 6.3972 77.5458 5.66643C77.621 5.39777 77.6318 5.11835 77.5995 4.8282C78.642 5.30105 79.19 6.10705 79.6414 6.76259C79.9208 7.17096 80.1465 7.49336 80.4689 7.71904L82.1454 8.83669V7.53635C82.6827 7.31067 83.4135 6.93454 84.1335 6.36496C85.0685 5.60195 85.3908 4.03294 84.8965 2.63588C84.8105 2.38871 84.7031 2.16303 84.5741 1.9481ZM82.9191 0.679993C82.1776 0.679993 81.4038 0.776712 80.6086 0.991645C84.2839 0.991645 84.6171 4.58102 83.4457 5.52673C82.2743 6.47243 81.06 6.78408 81.06 6.78408V6.79483C80.3829 6.33272 79.5339 3.33441 75.6007 3.33441C77.2879 5.17209 76.3207 5.94585 75.6007 6.16078C73.1827 6.9023 70.7969 7.65456 69.7222 8.41757C69.7222 8.41757 68.2607 6.96678 66.8744 5.83838C65.0904 4.36609 63.5537 3.63532 62.1889 3.63532C60.7273 3.63532 59.4807 4.47356 58.3523 6.16078C56.1922 10.3197 57.8902 19.003 62.4898 20.0562C59.6741 24.9674 58.2878 33.1133 60.0718 38.8521C61.2324 36.8102 61.8342 35.9827 62.1351 35.9827C63.1131 35.9827 60.781 44.9454 63.9621 49.1473C64.8433 46.7186 65.4021 45.8159 65.9179 45.8159C67.0356 45.8159 67.9598 50.0501 71.6996 52.1564C76.3744 54.6066 77.1482 52.5648 81.0814 57.6264C85.0147 52.5648 85.7885 54.6066 90.4633 52.1564C94.2031 50.0501 95.1381 45.8266 96.2557 45.8266C96.7715 45.8266 97.3196 46.7293 98.2008 49.1581C101.393 44.9561 99.0498 35.9935 100.028 35.9935C100.329 35.9935 100.93 36.8209 102.091 38.8628C103.875 33.0704 102.499 25.0211 99.6731 20.0669C99.6731 20.0669 102.199 19.1427 103.284 17.1546C105.272 13.7157 105.842 4.46281 100.135 4.07593C100.049 4.06518 99.9633 4.06518 99.8773 4.06518C96.6533 4.06518 93.9452 8.09517 92.4406 8.43907C92.1182 5.74166 88.3032 0.679993 82.9191 0.679993Z" fill="#060707"/>
<path d="M83.6285 23.5703C83.7682 23.9787 84.5957 26.3 87.7229 30.0506C88.8083 31.3509 90.2162 33.5217 88.9373 36.6598C87.9056 38.2288 88.5612 39.5828 87.7229 39.5828C86.8847 39.5828 85.4769 39.3894 84.3377 38.7446C83.3276 38.1643 82.4786 37.9493 82.2851 37.9064V35.1337C84.284 34.7254 85.7563 33.2853 85.7563 31.5658C85.7563 29.5347 83.6929 28.4601 81.146 28.4601C78.599 28.4601 76.5357 29.5347 76.5357 31.5658C76.5357 33.2853 78.0187 34.7254 80.0068 35.1337V37.9064C79.8242 37.9493 78.9644 38.1643 77.9542 38.7446C76.8151 39.3894 75.4073 39.5828 74.5691 39.5828C73.7308 39.5828 74.3756 38.2288 73.3547 36.6598C72.0866 33.5217 73.4944 31.3509 74.5691 30.0506C77.6963 26.3 78.9967 23.925 79.1579 23.5703C79.4588 22.8933 80.0498 21.5715 81.3824 21.5715C82.7365 21.5715 83.4028 22.9041 83.6285 23.5703Z" fill="white"/>
<path d="M81.1675 40.0665C82.0595 40.0665 83.9079 41.3776 84.9825 41.3776C84.9825 41.3776 82.9622 42.1728 81.1675 42.1728C79.3728 42.1728 77.3202 41.3238 77.3202 41.3238C78.4163 41.3238 80.3078 40.0665 81.1675 40.0665Z" fill="#00DCDC"/>
<path d="M81.1889 14.9086C81.1889 14.9086 86.3043 14.468 90.302 14.0166C94.2998 13.576 95.4067 14.6292 95.7936 14.6937C96.2019 12.5551 97.1047 10.7174 98.9638 10.7174C99.8451 10.7174 100.339 11.7276 99.8021 16.4884C102.403 13.9951 102.424 8.49286 100.049 7.99851C97.685 7.51492 95.6216 10.309 93.6442 11.3837C92.2579 12.136 91.5701 12.179 90.7427 12.1682C90.6352 11.1258 90.7319 10.4165 90.0334 8.81526C89.3348 7.21401 86.5837 4.90348 85.7884 4.80676C86.0249 6.98833 85.0039 8.15971 83.9723 8.85825C83.7896 8.98721 83.6069 9.09467 83.4457 9.19139C82.2743 9.68574 81.8122 9.86843 80.3829 10.0511C79.8671 9.72872 79.2652 8.53585 78.5452 7.85881C77.2126 9.55678 75.7726 9.24512 72.8817 10.352C71.6996 10.8034 69.733 12.1037 69.733 12.1037C67.4547 9.51379 64.4671 7.05281 62.0921 7.53641C59.7278 8.02001 59.4914 13.1676 61.9631 16.0477C61.4258 11.2762 62.4467 10.6959 63.3387 10.6959C65.1979 10.6959 66.1006 12.5443 66.509 14.6937C66.9281 14.6077 69.6362 13.3288 74.311 13.9951" fill="#00DCDC"/>
<path d="M68.8088 30.5665C67.9491 30.5665 67.1109 30.3838 66.3156 30.0292C64.7896 29.3414 63.6612 28.2452 62.9412 26.7837C62.4146 28.342 61.9202 29.7927 62.017 32.6084C62.017 32.6084 64.6391 28.7396 64.5854 31.5015C64.5317 34.2634 65.2624 38.9381 65.8643 40.6898C67.2506 44.7306 70.5283 46.4715 72.7528 46.2459C69.862 44.6876 68.9808 40.8403 68.9808 37.8635C68.9808 35.4025 70.9689 33.64 69.1742 30.5665C69.0345 30.5665 68.9163 30.5665 68.8088 30.5665Z" fill="#00DCDC"/>
<path d="M93.4401 30.5665C94.2998 30.5665 95.1381 30.3838 95.9333 30.0292C97.4594 29.3414 98.5878 28.2452 99.3078 26.7837C99.8344 28.342 100.329 29.7927 100.232 32.6084C100.232 32.6084 97.6098 28.7396 97.6635 31.5015C97.7173 34.2634 96.9865 38.9381 96.3847 40.6898C94.9984 44.7306 91.7206 46.4715 89.4961 46.2459C92.3869 44.6876 93.2682 40.8403 93.2682 37.8635C93.2682 35.4025 91.28 33.64 93.0747 30.5665C93.2144 30.5665 93.3326 30.5665 93.4401 30.5665Z" fill="#00DCDC"/>
<path d="M80.0605 18.9815C79.9852 18.1541 79.7595 17.3695 79.4049 16.6818H83.4027C83.048 17.3695 82.8223 18.1541 82.7471 18.9815C82.3172 18.7881 81.8659 18.6914 81.4038 18.6914C80.9417 18.6914 80.4903 18.7989 80.0605 18.9815Z" fill="#00DCDC"/>
<path d="M95.611 17.7779C94.3429 16.4346 91.581 16.5743 90.1302 17.0256C92.2044 17.1331 93.7196 18.5839 93.999 19.7123C94.2355 20.6473 94.0205 22.3775 94.0205 22.3775C94.0958 22.356 96.7932 19.0245 95.611 17.7779Z" fill="white"/>
<path d="M77.6533 17.9713C76.3852 16.628 73.6233 16.7677 72.1725 17.2191C74.2466 17.3265 75.7619 18.7773 76.0413 19.9057C76.2777 20.8407 76.0628 22.5709 76.0628 22.5709C76.138 22.5494 78.8247 19.2179 77.6533 17.9713Z" fill="white"/>
</svg>
